<?xml version="1.0" encoding="UTF-8" standalone="no"?><!DOCTYPE svg PUBLIC "-//W3C//DTD SVG 1.1//EN" "http://www.w3.org/Graphics/SVG/1.1/DTD/svg11.dtd"><svg width="100%" height="100%" viewBox="0 0 680 164" version="1.1" xmlns="http://www.w3.org/2000/svg" xmlns:xlink="http://www.w3.org/1999/xlink" xml:space="preserve" xmlns:serif="http://www.serif.com/" style="fill-rule:evenodd;clip-rule:evenodd;stroke-linejoin:round;stroke-miterlimit:2;"><path d="M98.26,77.851c0.018,-0.023 0.045,-0.036 0.075,-0.036c0.072,0.001 0.144,0.001 0.217,0.001c8.396,-0 14.698,-2.841 14.821,-10.005c0,-8.646 -10.254,-12.475 -21.123,-16.675c-12.599,-4.941 -25.936,-10.622 -25.936,-25.568c-0,-15.563 13.463,-25.568 31.25,-25.568c14.06,-0 25.593,5.061 33.154,12.63c0.453,0.451 0.43,1.201 -0.029,1.646l-10.43,10.111c-0.46,0.448 -1.187,0.408 -1.626,-0.057c-5.501,-5.843 -11.861,-8.767 -20.575,-8.767c-7.411,-0 -12.602,3.582 -12.602,9.264c0,6.299 8.032,9.511 17.416,13.216c13.339,5.311 29.397,11.611 29.397,29.521c0,18.774 -15.44,27.544 -34.335,27.544c-3.981,0 -7.884,-0.491 -11.614,-1.405c-0.103,-0.025 -0.186,-0.101 -0.22,-0.202c-0.035,-0.1 -0.016,-0.211 0.05,-0.294c1.834,-2.326 11.515,-14.601 12.11,-15.356Zm-31.806,-4.947l-4.525,5.737c-0.278,-0.453 -0.206,-1.051 0.179,-1.434l4.346,-4.303Z" style="fill:#ffc400;fill-rule:nonzero;"/><path d="M189.828,62.993c0,-9.14 -5.806,-16.428 -14.452,-16.428c-5.978,-0 -11.117,3.981 -13.262,9.792c-0.052,0.138 -0.078,0.291 -0.078,0.44l0,12.395c0,0.149 0.026,0.299 0.078,0.439c2.145,5.808 7.284,9.666 13.262,9.666c8.646,0 14.452,-7.164 14.452,-16.304m17.786,0c0,18.033 -11.86,32.114 -28.656,32.114c-5.98,0 -11.036,-1.844 -15.089,-5.058c-0.744,-0.592 -1.833,-0.043 -1.833,0.905l0,32.763c0,0.638 -0.517,1.155 -1.157,1.149l-15.489,-0.106c-0.629,-0.006 -1.137,-0.517 -1.137,-1.149l0,-90.349c0,-0.631 0.511,-1.149 1.146,-1.149l15.488,-0c0.635,-0 1.149,0.518 1.149,1.149l0,4.289c4.323,-4.202 10.005,-6.673 16.922,-6.673c16.796,0 28.656,14.081 28.656,32.115" style="fill:#1f2227;fill-rule:nonzero;"/><path d="M261.839,62.993c0,-9.14 -5.929,-16.428 -14.451,-16.428c-8.77,-0 -14.455,7.288 -14.455,16.428c0,9.14 5.685,16.304 14.455,16.304c8.522,0 14.451,-7.164 14.451,-16.304m-46.689,0c0,-18.034 13.466,-32.115 32.238,-32.115c18.651,-0 32.235,14.081 32.235,32.115c0,17.91 -13.584,32.114 -32.235,32.114c-18.772,0 -32.238,-14.204 -32.238,-32.114" style="fill:#1f2227;fill-rule:nonzero;"/><path d="M291.358,72.257l0,-69.874c0,-0.632 0.514,-1.149 1.146,-1.149l15.739,-0c0.635,-0 1.149,0.517 1.149,1.149l0,69.997c0,5.065 2.594,7.535 6.423,7.535c1.904,-0 3.398,-0.405 4.688,-1.416c0.502,-0.397 1.246,-0.241 1.605,0.29l7.308,10.855c0.339,0.503 0.247,1.201 -0.236,1.566c-3.366,2.533 -7.778,3.898 -13.242,3.898c-16.798,-0 -24.58,-9.141 -24.58,-22.851" style="fill:#1f2227;fill-rule:nonzero;"/><path d="M351.383,56.077l21.935,-0c0.729,-0 1.295,-0.684 1.131,-1.393c-1.462,-6.297 -5.138,-9.847 -11.82,-9.847c-6.877,-0 -10.671,3.826 -12.366,9.803c-0.204,0.719 0.371,1.437 1.12,1.437m38.995,12.104l-39.506,0c-0.704,0 -1.264,0.638 -1.143,1.33c1.258,7.357 5.345,11.763 13.394,11.763c5.785,0 9.649,-1.919 13.757,-7.701c0.327,-0.46 0.942,-0.638 1.447,-0.385l10.798,5.343c0.575,0.287 0.825,1 0.532,1.571c-4.763,9.267 -14.262,15.006 -26.163,15.006c-21.619,0 -31.868,-13.71 -31.868,-32.114c0,-18.281 11.485,-32.238 31.25,-32.238c17.907,-0 28.9,12.598 28.9,32.114c0,1.405 -0.083,2.812 -0.247,4.283c-0.066,0.58 -0.568,1.028 -1.151,1.028" style="fill:#1f2227;fill-rule:nonzero;"/><path d="M463.046,54.841l0,37.883c0,0.635 -0.517,1.149 -1.149,1.149l-15.738,-0c-0.635,-0 -1.147,-0.514 -1.147,-1.149l0,-35.659c0,-6.3 -4.69,-10.499 -11.484,-10.499c-7.043,-0 -12.601,5.064 -12.601,11.487l0,34.671c0,0.635 -0.518,1.149 -1.149,1.149l-15.736,-0c-0.635,-0 -1.146,-0.514 -1.146,-1.149l0,-90.34c0,-0.632 0.511,-1.149 1.146,-1.149l15.736,-0c0.631,-0 1.149,0.517 1.149,1.149l0,33.415c0,0.969 1.126,1.503 1.864,0.879c4.332,-3.648 9.812,-5.799 16.046,-5.799c14.451,-0 24.209,9.387 24.209,23.962" style="fill:#1f2227;fill-rule:nonzero;"/><path d="M478.239,72.257l0,-69.874c0,-0.632 0.514,-1.149 1.146,-1.149l15.738,-0c0.635,-0 1.149,0.517 1.149,1.149l0,69.997c0,5.065 2.594,7.535 6.423,7.535c1.905,-0 3.399,-0.405 4.688,-1.416c0.503,-0.397 1.247,-0.241 1.606,0.29l7.308,10.855c0.339,0.503 0.247,1.201 -0.236,1.566c-3.366,2.533 -7.779,3.898 -13.242,3.898c-16.798,-0 -24.58,-9.141 -24.58,-22.851" style="fill:#1f2227;fill-rule:nonzero;"/><path d="M524.962,32.115l15.738,-0c0.632,-0 1.149,0.514 1.149,1.149l0,59.461c0,0.632 -0.517,1.149 -1.149,1.149l-15.738,-0c-0.635,-0 -1.146,-0.517 -1.146,-1.149l0,-59.461c0,-0.635 0.511,-1.149 1.146,-1.149m-2.258,-20.751c0,-8.316 10.505,-14.42 18.278,-6.317c0.074,0.078 0.146,0.17 0.204,0.259c5.081,7.85 -0.848,16.186 -8.356,16.186c-5.432,-0 -10.126,-4.57 -10.126,-10.128" style="fill:#1f2227;fill-rule:nonzero;"/><path d="M616.065,33.693l-23.902,59.46c-0.175,0.434 -0.597,0.719 -1.065,0.719l-15.495,-0c-0.471,-0 -0.89,-0.285 -1.065,-0.721l-23.785,-59.458c-0.301,-0.759 0.256,-1.577 1.069,-1.577l16.741,0c0.497,0 0.934,0.316 1.092,0.787l12.607,37.94c0.35,1.048 1.83,1.051 2.18,0.003l12.725,-37.946c0.158,-0.468 0.595,-0.784 1.089,-0.784l16.744,-0c0.813,-0 1.367,0.821 1.065,1.577" style="fill:#1f2227;fill-rule:nonzero;"/><path d="M655.756,21.74l-11.142,-0c-0.854,-0 -1.408,-0.896 -1.029,-1.66l9.112,-18.33c0.192,-0.39 0.591,-0.637 1.025,-0.637l15.095,-0c0.934,-0 1.48,1.054 0.934,1.815l-13.061,18.329c-0.216,0.305 -0.563,0.483 -0.934,0.483m-17.942,34.338l21.935,-0c0.729,-0 1.298,-0.687 1.132,-1.396c-1.465,-6.297 -5.137,-9.844 -11.821,-9.844c-6.877,-0 -10.668,3.823 -12.366,9.801c-0.204,0.721 0.371,1.439 1.12,1.439m38.997,12.102l-39.508,-0c-0.704,-0 -1.264,0.64 -1.143,1.333c1.261,7.356 5.346,11.762 13.394,11.762c5.785,0 9.649,-1.918 13.76,-7.701c0.327,-0.462 0.942,-0.637 1.447,-0.388l10.798,5.346c0.574,0.285 0.824,1 0.531,1.569c-4.762,9.266 -14.262,15.008 -26.165,15.008c-21.619,0 -31.868,-13.71 -31.868,-32.117c0,-18.278 11.487,-32.235 31.25,-32.235c17.907,-0 28.9,12.596 28.9,32.111c0,1.408 -0.08,2.813 -0.247,4.286c-0.063,0.58 -0.565,1.026 -1.149,1.026" style="fill:#1f2227;fill-rule:nonzero;"/><path d="M446.055,128.337l-4.013,7.043c-0.161,0.282 -0.525,0.388 -0.798,0.216c-1.06,-0.676 -2.652,-1.391 -5.337,-1.391c-4.484,0 -8.816,3.737 -8.816,9.936l0,18.097c0,0.319 -0.256,0.574 -0.575,0.574l-9.755,0c-0.318,0 -0.571,-0.255 -0.571,-0.574l0,-36.194c0,-0.318 0.253,-0.577 0.571,-0.577l8.693,0c0.295,0 0.542,0.224 0.571,0.517l0.546,5.234c2.539,-3.958 6.348,-6.498 10.68,-6.498c4.11,0 6.541,0.942 8.692,2.893c0.201,0.181 0.247,0.488 0.112,0.724" style="fill:#1f2227;fill-rule:nonzero;"/><path d="M458.532,139.959l13.556,-0c0.365,-0 0.649,-0.354 0.571,-0.71c-0.864,-3.892 -3.088,-6.087 -7.178,-6.087c-4.211,0 -6.509,2.373 -7.514,6.067c-0.098,0.362 0.189,0.73 0.565,0.73m24.353,7.319l-24.646,-0c-0.353,-0 -0.634,0.333 -0.58,0.683c0.741,4.519 3.206,7.233 8.121,7.233c3.524,0 5.871,-1.177 8.376,-4.739c0.161,-0.227 0.471,-0.322 0.721,-0.198l6.73,3.335c0.29,0.14 0.417,0.502 0.27,0.789c-2.858,5.665 -8.629,9.178 -15.87,9.178c-13.073,0 -19.272,-8.29 -19.272,-19.418c0,-11.056 6.946,-19.496 18.895,-19.496c10.83,0 17.48,7.621 17.48,19.421c0,1.046 -0.078,2.091 -0.225,3.212" style="fill:#1f2227;fill-rule:nonzero;"/><path d="M487.662,144.141c0,-11.278 7.169,-19.421 18.223,-19.421c2.8,-0 6.018,0.416 8.919,1.778c0.207,0.098 0.342,0.313 0.342,0.543l0,8.425c0,0.465 -0.526,0.75 -0.894,0.465c-1.651,-1.269 -4.102,-2.097 -6.65,-2.097c-5.676,0 -9.186,4.332 -9.186,10.307c0,5.9 3.51,10.307 9.186,10.307c2.609,-0 5.01,-0.828 6.647,-2.092c0.368,-0.287 0.897,-0.005 0.897,0.463l0,8.304c0,0.213 -0.112,0.417 -0.296,0.52c-2.657,1.5 -6.159,1.916 -8.965,1.916c-11.054,0 -18.223,-8.141 -18.223,-19.418" style="fill:#1f2227;fill-rule:nonzero;"/><path d="M531.871,139.959l13.555,-0c0.365,-0 0.65,-0.354 0.572,-0.71c-0.865,-3.892 -3.088,-6.087 -7.178,-6.087c-4.211,0 -6.509,2.373 -7.515,6.067c-0.097,0.362 0.19,0.73 0.566,0.73m24.353,7.319l-24.646,-0c-0.353,-0 -0.635,0.333 -0.58,0.683c0.741,4.519 3.206,7.233 8.12,7.233c3.525,0 5.872,-1.177 8.377,-4.739c0.16,-0.227 0.471,-0.322 0.721,-0.198l6.73,3.335c0.29,0.14 0.416,0.502 0.27,0.789c-2.858,5.665 -8.629,9.178 -15.871,9.178c-13.072,0 -19.271,-8.29 -19.271,-19.418c0,-11.056 6.945,-19.496 18.895,-19.496c10.829,0 17.479,7.621 17.479,19.421c0,1.046 -0.077,2.091 -0.224,3.212" style="fill:#1f2227;fill-rule:nonzero;"/><path d="M599.54,139.211l0,23.029c0,0.316 -0.258,0.571 -0.574,0.571l-9.758,0c-0.316,0 -0.572,-0.255 -0.572,-0.571l0,-21.685c0,-3.809 -2.838,-6.348 -6.945,-6.348c-4.257,0 -7.618,3.062 -7.618,6.946l0,21.087c0,0.316 -0.259,0.571 -0.575,0.571l-9.761,0c-0.316,0 -0.571,-0.255 -0.571,-0.571l0,-36.197c0,-0.316 0.255,-0.574 0.571,-0.574l8.71,-0c0.29,-0 0.531,0.212 0.572,0.497l0.531,3.835c2.835,-3.137 6.793,-5.079 11.349,-5.079c8.741,0 14.641,5.676 14.641,14.489" style="fill:#1f2227;fill-rule:nonzero;"/><path d="M607.229,154.656l17.715,-19.337c0.339,-0.368 0.075,-0.963 -0.422,-0.963l-16.793,0c-0.319,0 -0.571,-0.255 -0.571,-0.574l0,-7.739c0,-0.316 0.252,-0.574 0.571,-0.574l31.267,-0c0.316,-0 0.575,0.258 0.575,0.574l0,7.044c0,0.143 -0.055,0.281 -0.152,0.387l-17.793,19.488c-0.336,0.37 -0.077,0.962 0.423,0.962l17.094,-0c0.319,-0 0.577,0.258 0.577,0.574l0,7.742c0,0.316 -0.258,0.571 -0.577,0.571l-31.491,0c-0.316,0 -0.572,-0.255 -0.572,-0.571l0,-7.196c0,-0.144 0.055,-0.281 0.149,-0.388" style="fill:#1f2227;fill-rule:nonzero;"/><path d="M655.1,139.959l13.558,-0c0.365,-0 0.649,-0.354 0.571,-0.71c-0.864,-3.892 -3.09,-6.087 -7.178,-6.087c-4.211,0 -6.509,2.373 -7.517,6.067c-0.098,0.362 0.189,0.73 0.566,0.73m24.353,7.319l-24.646,-0c-0.354,-0 -0.635,0.333 -0.581,0.683c0.744,4.519 3.209,7.233 8.121,7.233c3.527,0 5.874,-1.177 8.379,-4.739c0.161,-0.227 0.471,-0.322 0.721,-0.198l6.73,3.332c0.29,0.143 0.417,0.505 0.27,0.792c-2.861,5.665 -8.629,9.178 -15.873,9.178c-13.07,0 -19.269,-8.29 -19.269,-19.418c0,-11.056 6.946,-19.496 18.895,-19.496c10.827,0 17.477,7.621 17.477,19.421c0,1.046 -0.075,2.091 -0.224,3.212" style="fill:#1f2227;fill-rule:nonzero;"/><path d="M94.155,68.347c2.539,-3.218 0.278,-7.949 -3.821,-8.006l-14.503,-0.187l-2.663,-0.031l-7.678,-0.098c-1.629,-0.02 -3.143,-0.842 -4.047,-2.195l-13.82,-20.647c-2.284,-3.407 -7.48,-2.72 -8.793,1.16l-7.982,23.532c-0.526,1.542 -1.77,2.729 -3.335,3.171l-23.908,6.762c-3.947,1.12 -4.901,6.273 -1.617,8.724l19.912,14.859c1.307,0.974 2.054,2.528 1.985,4.154l-0.81,21.176l-0.141,3.654c-0.049,1.243 0.376,2.309 1.037,3.165c1.519,1.968 4.423,2.709 6.759,1.066l20.285,-14.348c1.327,-0.942 3.034,-1.169 4.565,-0.603l23.316,8.583c3.846,1.41 7.646,-2.201 6.431,-6.11l-7.373,-23.73c-0.486,-1.554 -0.173,-3.246 0.833,-4.527l15.368,-19.524Z" style="fill:#ffd600;fill-rule:nonzero;"/><clipPath id="_clip1"><path d="M94.155,68.347c2.539,-3.218 0.278,-7.949 -3.821,-8.006l-14.503,-0.187l-2.663,-0.031l-7.678,-0.098c-1.629,-0.02 -3.143,-0.842 -4.047,-2.195l-13.82,-20.647c-2.284,-3.407 -7.48,-2.72 -8.793,1.16l-7.982,23.532c-0.526,1.542 -1.77,2.729 -3.335,3.171l-23.908,6.762c-3.947,1.12 -4.901,6.273 -1.617,8.724l19.912,14.859c1.307,0.974 2.054,2.528 1.985,4.154l-0.81,21.176l-0.141,3.654c-0.049,1.243 0.376,2.309 1.037,3.165c1.519,1.968 4.423,2.709 6.759,1.066l20.285,-14.348c1.327,-0.942 3.034,-1.169 4.565,-0.603l23.316,8.583c3.846,1.41 7.646,-2.201 6.431,-6.11l-7.373,-23.73c-0.486,-1.554 -0.173,-3.246 0.833,-4.527l15.368,-19.524Z" clip-rule="nonzero"/></clipPath><g clip-path="url(#_clip1)"><path d="M30.7,128.723l20.335,-14.378c1.334,-0.945 3.042,-1.171 4.576,-0.604l23.37,8.599c3.861,1.419 7.665,-2.201 6.451,-6.12l-7.391,-23.791c-0.488,-1.555 -0.173,-3.251 0.835,-4.533l15.402,-19.573c2.548,-3.226 0.279,-7.969 -3.829,-8.022l-14.541,-0.189l-51.979,67.544c1.524,1.97 4.439,2.716 6.771,1.067" style="fill:#ffc400;fill-rule:nonzero;"/></g></svg>