<?xml version="1.0" encoding="UTF-8" standalone="no"?>
<!DOCTYPE svg PUBLIC "-//W3C//DTD SVG 1.1//EN" "http://www.w3.org/Graphics/SVG/1.1/DTD/svg11.dtd">
<svg width="100%" height="100%" viewBox="0 0 708 432" version="1.1" xmlns="http://www.w3.org/2000/svg" xmlns:xlink="http://www.w3.org/1999/xlink" xml:space="preserve" xmlns:serif="http://www.serif.com/" style="fill-rule:evenodd;clip-rule:evenodd;stroke-linejoin:round;stroke-miterlimit:2;">
    <g transform="matrix(1,0,0,1,-994.27,-446.539)">
        <g transform="matrix(0.999869,0,0,1,0.237288,215.006)">
            <g id="Image">
                <g transform="matrix(0.368386,0,0,0.159518,994.163,231.533)">
                    <rect x="0" y="0" width="1920" height="2705" style="fill:white;"/>
                </g>
                <g transform="matrix(0.776895,0,0,2.68511,686.613,-772.005)">
                    <rect x="1049.08" y="479.878" width="169.028" height="29.052" style="fill:rgb(229,229,229);"/>
                </g>
                <g transform="matrix(0.776895,0,0,2.68511,540.29,-772.005)">
                    <rect x="1049.08" y="479.878" width="169.028" height="29.052" style="fill:rgb(229,229,229);"/>
                </g>
                <g transform="matrix(0.776895,0,0,2.68511,393.966,-772.005)">
                    <rect x="1049.08" y="479.878" width="169.028" height="29.052" style="fill:rgb(229,229,229);"/>
                </g>
                <g transform="matrix(0.776895,0,0,2.68511,247.647,-772.005)">
                    <rect x="1049.08" y="479.878" width="169.028" height="29.052" style="fill:rgb(229,229,229);"/>
                </g>
                <g transform="matrix(3.3739,0,0,5.35432,-2476.81,-2223.45)">
                    <rect x="1049.08" y="479.878" width="169.028" height="29.052" style="fill:rgb(229,229,229);"/>
                </g>
                <g transform="matrix(1.00588,0,0,1.03264,7.42262,-194.769)">
                    <rect x="1049.08" y="479.878" width="169.028" height="29.052" style="fill:rgb(79,84,255);"/>
                </g>
            </g>
        </g>
    </g>
</svg>
