<?xml version="1.0" encoding="UTF-8" standalone="no"?><!DOCTYPE svg PUBLIC "-//W3C//DTD SVG 1.1//EN" "http://www.w3.org/Graphics/SVG/1.1/DTD/svg11.dtd"><svg width="100%" height="100%" viewBox="0 0 223 20" version="1.1" xmlns="http://www.w3.org/2000/svg" xmlns:xlink="http://www.w3.org/1999/xlink" xml:space="preserve" xmlns:serif="http://www.serif.com/" style="fill-rule:evenodd;clip-rule:evenodd;stroke-linejoin:round;stroke-miterlimit:2;"><g><path d="M38.94,14.626c0,-0.758 -0.267,-1.339 -0.802,-1.745c-0.535,-0.406 -1.497,-0.833 -2.888,-1.283c-1.39,-0.45 -2.491,-0.894 -3.302,-1.331c-2.21,-1.194 -3.315,-2.803 -3.315,-4.826c-0,-1.052 0.296,-1.99 0.889,-2.814c0.592,-0.824 1.444,-1.468 2.553,-1.932c1.11,-0.463 2.355,-0.695 3.737,-0.695c1.39,0 2.629,0.252 3.716,0.755c1.088,0.504 1.932,1.215 2.534,2.133c0.601,0.918 0.902,1.96 0.902,3.128l-4.01,0c-0,-0.891 -0.281,-1.584 -0.843,-2.079c-0.561,-0.494 -1.35,-0.742 -2.366,-0.742c-0.98,0 -1.742,0.207 -2.286,0.622c-0.544,0.414 -0.816,0.96 -0.816,1.638c0,0.632 0.319,1.163 0.956,1.59c0.638,0.428 1.576,0.829 2.814,1.204c2.282,0.686 3.944,1.537 4.987,2.553c1.043,1.016 1.564,2.282 1.564,3.797c0,1.684 -0.637,3.006 -1.911,3.964c-1.275,0.958 -2.991,1.437 -5.148,1.437c-1.497,0 -2.861,-0.274 -4.09,-0.822c-1.23,-0.548 -2.168,-1.299 -2.815,-2.253c-0.646,-0.954 -0.969,-2.059 -0.969,-3.315l4.024,-0c0,2.148 1.284,3.222 3.85,3.222c0.954,-0 1.698,-0.194 2.233,-0.582c0.535,-0.388 0.802,-0.929 0.802,-1.624Z" style="fill-rule:nonzero;"/><path d="M60.331,3.516l-5.963,0l0,16.217l-4.011,-0l0,-16.217l-5.882,0l-0,-3.249l15.856,0l-0,3.249Z" style="fill-rule:nonzero;"/><path d="M77.349,0.267l0,12.821c0,2.13 -0.666,3.815 -1.998,5.054c-1.333,1.239 -3.153,1.858 -5.462,1.858c-2.272,0 -4.077,-0.602 -5.414,-1.805c-1.337,-1.203 -2.019,-2.856 -2.046,-4.96l0,-12.968l4.011,0l0,12.848c0,1.274 0.305,2.204 0.916,2.787c0.61,0.584 1.455,0.876 2.533,0.876c2.255,0 3.401,-1.185 3.436,-3.556l0,-12.955l4.024,0Z" style="fill-rule:nonzero;"/><path d="M80.638,19.733l0,-19.466l5.989,0c1.712,0 3.242,0.386 4.593,1.157c1.35,0.771 2.404,1.867 3.161,3.289c0.758,1.421 1.137,3.037 1.137,4.846l-0,0.896c-0,1.809 -0.372,3.418 -1.117,4.826c-0.744,1.408 -1.793,2.5 -3.148,3.275c-1.355,0.776 -2.883,1.168 -4.586,1.177l-6.029,-0Zm4.011,-16.217l-0,12.995l1.938,-0c1.569,-0 2.768,-0.513 3.596,-1.538c0.829,-1.025 1.253,-2.491 1.271,-4.398l-0,-1.03c-0,-1.978 -0.41,-3.478 -1.23,-4.498c-0.82,-1.021 -2.019,-1.531 -3.597,-1.531l-1.978,0Z" style="fill-rule:nonzero;"/><rect x="98.686" y="0.267" width="4.011" height="19.465" style="fill-rule:nonzero;"/><path d="M122.403,10.441c-0,1.916 -0.339,3.596 -1.016,5.04c-0.678,1.444 -1.647,2.558 -2.908,3.343c-1.261,0.784 -2.707,1.176 -4.338,1.176c-1.613,0 -3.053,-0.388 -4.318,-1.163c-1.266,-0.776 -2.246,-1.883 -2.942,-3.322c-0.695,-1.44 -1.047,-3.095 -1.056,-4.967l0,-0.962c0,-1.917 0.346,-3.603 1.036,-5.061c0.691,-1.457 1.667,-2.575 2.928,-3.355c1.261,-0.78 2.703,-1.17 4.325,-1.17c1.622,0 3.064,0.39 4.325,1.17c1.261,0.78 2.237,1.898 2.928,3.355c0.69,1.458 1.036,3.14 1.036,5.047l-0,0.869Zm-4.064,-0.882c-0,-2.041 -0.366,-3.592 -1.097,-4.653c-0.731,-1.06 -1.773,-1.59 -3.128,-1.59c-1.346,-0 -2.384,0.523 -3.115,1.57c-0.731,1.048 -1.101,2.583 -1.11,4.606l0,0.949c0,1.988 0.366,3.53 1.097,4.626c0.73,1.096 1.782,1.644 3.155,1.644c1.346,0 2.379,-0.528 3.101,-1.584c0.722,-1.056 1.088,-2.596 1.097,-4.619l-0,-0.949Z" style="fill-rule:nonzero;"/><path d="M132.135,19.733l0,-19.466l5.99,0c1.711,0 3.242,0.386 4.592,1.157c1.35,0.771 2.404,1.867 3.162,3.289c0.757,1.421 1.136,3.037 1.136,4.846l0,0.896c0,1.809 -0.372,3.418 -1.116,4.826c-0.745,1.408 -1.794,2.5 -3.149,3.275c-1.354,0.776 -2.883,1.168 -4.585,1.177l-6.03,-0Zm4.011,-16.217l0,12.995l1.939,-0c1.568,-0 2.767,-0.513 3.596,-1.538c0.829,-1.025 1.252,-2.491 1.27,-4.398l-0,-1.03c-0,-1.978 -0.41,-3.478 -1.23,-4.498c-0.82,-1.021 -2.019,-1.531 -3.596,-1.531l-1.979,0Z" style="fill-rule:nonzero;"/><path d="M161.641,11.297l-7.701,-0l0,5.214l9.038,-0l-0,3.222l-13.049,-0l0,-19.466l13.022,0l-0,3.249l-9.011,0l0,4.639l7.701,0l-0,3.142Z" style="fill-rule:nonzero;"/><path d="M181.159,19.733l-4.01,-0l-7.808,-12.808l0,12.808l-4.01,-0l-0,-19.466l4.01,0l7.821,12.835l0,-12.835l3.997,0l0,19.466Z" style="fill-rule:nonzero;"/><path d="M195.651,15.722l-7.032,-0l-1.337,4.011l-4.264,-0l7.246,-19.466l3.716,0l7.286,19.466l-4.264,-0l-1.351,-4.011Zm-5.949,-3.249l4.866,0l-2.446,-7.286l-2.42,7.286Z" style="fill-rule:nonzero;"/><path d="M207.095,16.511l8.516,-0l0,3.222l-12.527,-0l0,-19.466l4.011,0l0,16.244Z" style="fill-rule:nonzero;"/><rect x="218.165" y="0.267" width="4.011" height="19.465" style="fill-rule:nonzero;"/><path d="M12.312,0l12.313,20l-24.625,0l12.312,-20Z" style="fill:#4f54ff;"/></g></svg>