<?xml version="1.0" standalone="no"?>
<!DOCTYPE svg PUBLIC "-//W3C//DTD SVG 20010904//EN"
 "http://www.w3.org/TR/2001/REC-SVG-20010904/DTD/svg10.dtd">
<svg version="1.0" xmlns="http://www.w3.org/2000/svg"
 width="260.000000pt" height="260.000000pt" viewBox="0 0 260.000000 260.000000"
 preserveAspectRatio="xMidYMid meet">
<metadata>
Created by potrace 1.14, written by Peter Selinger 2001-2017
</metadata>
<g transform="translate(0.000000,260.000000) scale(0.100000,-0.100000)"
fill="#000000" stroke="none">
<path d="M1125 2590 c-560 -88 -984 -488 -1102 -1040 -28 -131 -25 -382 5
-520 59 -265 178 -476 374 -666 183 -177 390 -286 648 -341 131 -28 382 -25
520 5 265 59 476 178 666 374 177 183 286 390 341 648 28 131 25 382 -5 520
-113 508 -502 894 -1012 1005 -89 19 -350 28 -435 15z m-35 -965 c154 -63 228
-184 218 -354 -7 -121 -60 -212 -154 -267 -72 -43 -135 -54 -301 -54 l-153 0
0 351 0 351 173 -4 c137 -4 181 -8 217 -23z m673 -131 c25 -9 63 -32 85 -53
55 -54 76 -103 76 -186 l1 -70 -203 -3 -203 -2 6 -23 c18 -61 66 -97 130 -97
40 0 105 31 105 50 0 6 31 10 75 10 46 0 75 -4 75 -10 0 -48 -88 -133 -161
-154 -188 -56 -353 54 -367 244 -13 180 100 310 269 310 36 0 86 -7 112 -16z"/>
<path d="M840 1300 l0 -230 73 0 c95 0 140 14 188 57 95 86 87 280 -13 356
-43 33 -98 47 -180 47 l-68 0 0 -230z"/>
<path d="M1590 1378 c-19 -13 -43 -39 -53 -58 l-17 -35 65 -3 c35 -2 95 -2
133 0 l68 3 -8 32 c-10 40 -54 71 -110 79 -35 5 -50 1 -78 -18z"/>
</g>
</svg>
