<?xml version="1.0" standalone="no"?>
<!DOCTYPE svg PUBLIC "-//W3C//DTD SVG 20010904//EN"
 "http://www.w3.org/TR/2001/REC-SVG-20010904/DTD/svg10.dtd">
<svg version="1.0" xmlns="http://www.w3.org/2000/svg"
 width="339.000000pt" height="339.000000pt" viewBox="0 0 339.000000 339.000000"
 preserveAspectRatio="xMidYMid meet">
<metadata>
Created by potrace 1.11, written by Peter Selinger 2001-2013
</metadata>
<g transform="translate(0.000000,339.000000) scale(0.100000,-0.100000)"
fill="#000000" stroke="none">
<path d="M1435 2432 c-143 -246 -265 -456 -271 -467 -15 -27 -322 -552 -345
-590 -10 -16 -24 -41 -32 -55 -7 -14 -64 -113 -127 -220 -62 -107 -121 -208
-130 -225 -10 -16 -38 -65 -64 -108 -25 -43 -46 -79 -46 -81 0 -2 -27 -48 -59
-102 l-59 -99 700 -3 c385 -1 1011 -1 1392 0 l693 3 -70 120 c-38 66 -80 138
-93 160 -13 22 -45 76 -70 120 -91 158 -123 215 -301 520 -100 171 -190 326
-200 345 -11 19 -48 82 -82 138 -33 57 -61 106 -61 108 0 2 -12 23 -27 47 -21
34 -151 256 -253 432 -127 221 -230 398 -234 402 -1 1 -119 -199 -261 -445z"/>
</g>
</svg>
