<?xml version="1.0" encoding="UTF-8" standalone="no"?><!DOCTYPE svg PUBLIC "-//W3C//DTD SVG 1.1//EN" "http://www.w3.org/Graphics/SVG/1.1/DTD/svg11.dtd"><svg width="100%" height="100%" viewBox="0 0 1002 99" version="1.1" xmlns="http://www.w3.org/2000/svg" xmlns:xlink="http://www.w3.org/1999/xlink" xml:space="preserve" xmlns:serif="http://www.serif.com/" style="fill-rule:evenodd;clip-rule:evenodd;stroke-linejoin:round;stroke-miterlimit:2;"><path d="M580.32,0c-1.664,0 -3.072,0.576 -4.224,1.728c-1.152,1.152 -1.728,2.56 -1.728,4.224c-0,1.664 0.576,3.072 1.728,4.224c1.152,1.152 2.56,1.728 4.224,1.728c1.6,-0 2.96,-0.576 4.08,-1.728c1.12,-1.152 1.68,-2.56 1.68,-4.224c-0,-1.664 -0.56,-3.072 -1.68,-4.224c-1.12,-1.152 -2.48,-1.728 -4.08,-1.728l420.768,0l-0,2.016l-8.832,0l0,27.84c-1.856,-3.072 -4.544,-5.552 -8.064,-7.44c-3.52,-1.888 -7.328,-2.832 -11.424,-2.832c-4.736,0 -9.008,1.12 -12.816,3.36c-3.808,2.24 -6.8,5.392 -8.976,9.456c-2.176,4.064 -3.264,8.784 -3.264,14.16c-0,5.312 1.088,10.048 3.264,14.208c2.176,4.16 5.168,7.392 8.976,9.696c3.808,2.304 8.048,3.456 12.72,3.456c4.544,-0 8.512,-1.008 11.904,-3.024c3.392,-2.016 5.952,-4.592 7.68,-7.728l0,9.888l8.832,-0l-0,25.92l-315.264,0c5.056,0 9.488,-1.056 13.296,-3.168c3.808,-2.112 6.736,-5.04 8.784,-8.784c2.048,-3.744 3.072,-8.016 3.072,-12.816l-0,-53.76l-8.832,-0l-0,9.6c-1.664,-3.008 -4.208,-5.504 -7.632,-7.488c-3.424,-1.984 -7.408,-2.976 -11.952,-2.976c-4.672,0 -8.912,1.12 -12.72,3.36c-3.808,2.24 -6.8,5.392 -8.976,9.456c-2.176,4.064 -3.264,8.784 -3.264,14.16c0,5.312 1.088,10.048 3.264,14.208c2.176,4.16 5.168,7.392 8.976,9.696c3.808,2.304 8.048,3.456 12.72,3.456c4.544,-0 8.512,-1.024 11.904,-3.072c3.392,-2.048 5.952,-4.608 7.68,-7.68l-0,11.04c-0,5.44 -1.52,9.664 -4.56,12.672c-3.04,3.008 -6.96,4.512 -11.76,4.512c-4.224,0 -7.84,-0.976 -10.848,-2.928c-3.008,-1.952 -4.992,-4.528 -5.952,-7.728l-8.64,0c0.832,5.632 3.552,10.08 8.16,13.344c4.608,3.264 10.368,4.896 17.28,4.896l-149.952,0c5.056,0 9.488,-1.056 13.296,-3.168c3.808,-2.112 6.736,-5.04 8.784,-8.784c2.048,-3.744 3.072,-8.016 3.072,-12.816l-0,-53.76l-8.832,0l-0,9.6c-1.664,-3.008 -4.208,-5.504 -7.632,-7.488c-3.424,-1.984 -7.408,-2.976 -11.952,-2.976c-4.672,0 -8.912,1.12 -12.72,3.36c-3.808,2.24 -6.8,5.392 -8.976,9.456c-2.176,4.064 -3.264,8.784 -3.264,14.16c-0,5.312 1.088,10.048 3.264,14.208c2.176,4.16 5.168,7.392 8.976,9.696c3.808,2.304 8.048,3.456 12.72,3.456c4.544,-0 8.512,-1.024 11.904,-3.072c3.392,-2.048 5.952,-4.608 7.68,-7.68l-0,11.04c-0,5.44 -1.52,9.664 -4.56,12.672c-3.04,3.008 -6.96,4.512 -11.76,4.512c-4.224,0 -7.84,-0.976 -10.848,-2.928c-3.008,-1.952 -4.992,-4.528 -5.952,-7.728l-8.64,0c0.832,5.632 3.552,10.08 8.16,13.344c4.608,3.264 10.368,4.896 17.28,4.896l-535.872,0l-0,-52.32c-0,5.44 1.12,10.224 3.36,14.352c2.24,4.128 5.328,7.312 9.264,9.552c3.936,2.24 8.4,3.36 13.392,3.36c6.272,-0 11.52,-1.584 15.744,-4.752c4.224,-3.168 7.04,-7.28 8.448,-12.336l-9.408,0c-1.024,2.944 -2.8,5.296 -5.328,7.056c-2.528,1.76 -5.68,2.64 -9.456,2.64c-4.608,-0 -8.528,-1.456 -11.76,-4.368c-3.232,-2.912 -5.008,-6.96 -5.328,-12.144l42.048,-0c0.192,-1.856 0.288,-3.616 0.288,-5.28c-0,-4.8 -1.04,-9.104 -3.12,-12.912c-2.08,-3.808 -5.04,-6.8 -8.88,-8.976c-3.84,-2.176 -8.256,-3.264 -13.248,-3.264c-5.12,0 -9.648,1.104 -13.584,3.312c-3.936,2.208 -6.992,5.36 -9.168,9.456c-2.176,4.096 -3.264,8.864 -3.264,14.304l-0,-46.656l580.32,0Zm-28.128,46.656c-0,3.968 -0.8,7.44 -2.4,10.416c-1.6,2.976 -3.76,5.248 -6.48,6.816c-2.72,1.568 -5.712,2.352 -8.976,2.352c-3.264,0 -6.24,-0.784 -8.928,-2.352c-2.688,-1.568 -4.832,-3.84 -6.432,-6.816c-1.6,-2.976 -2.4,-6.48 -2.4,-10.512c-0,-3.968 0.8,-7.424 2.4,-10.368c1.6,-2.944 3.744,-5.184 6.432,-6.72c2.688,-1.536 5.664,-2.304 8.928,-2.304c3.264,-0 6.256,0.784 8.976,2.352c2.72,1.568 4.88,3.824 6.48,6.768c1.6,2.944 2.4,6.4 2.4,10.368Zm149.952,0c-0,3.968 -0.8,7.44 -2.4,10.416c-1.6,2.976 -3.76,5.248 -6.48,6.816c-2.72,1.568 -5.712,2.352 -8.976,2.352c-3.264,0 -6.24,-0.784 -8.928,-2.352c-2.688,-1.568 -4.832,-3.84 -6.432,-6.816c-1.6,-2.976 -2.4,-6.48 -2.4,-10.512c-0,-3.968 0.8,-7.424 2.4,-10.368c1.6,-2.944 3.744,-5.184 6.432,-6.72c2.688,-1.536 5.664,-2.304 8.928,-2.304c3.264,-0 6.256,0.784 8.976,2.352c2.72,1.568 4.88,3.824 6.48,6.768c1.6,2.944 2.4,6.4 2.4,10.368Zm-659.904,-3.744l-33.216,0c0.448,-4.992 2.224,-8.896 5.328,-11.712c3.104,-2.816 6.864,-4.224 11.28,-4.224c3.072,0 5.872,0.624 8.4,1.872c2.528,1.248 4.528,3.072 6,5.472c1.472,2.4 2.208,5.264 2.208,8.592Zm950.016,3.744c-0,3.968 -0.8,7.44 -2.4,10.416c-1.6,2.976 -3.76,5.248 -6.48,6.816c-2.72,1.568 -5.712,2.352 -8.976,2.352c-3.264,0 -6.24,-0.784 -8.928,-2.352c-2.688,-1.568 -4.832,-3.84 -6.432,-6.816c-1.6,-2.976 -2.4,-6.48 -2.4,-10.512c-0,-3.968 0.8,-7.424 2.4,-10.368c1.6,-2.944 3.744,-5.184 6.432,-6.72c2.688,-1.536 5.664,-2.304 8.928,-2.304c3.264,-0 6.256,0.784 8.976,2.352c2.72,1.568 4.88,3.824 6.48,6.768c1.6,2.944 2.4,6.4 2.4,10.368Zm-517.152,-27.168c-3.584,0 -6.864,0.736 -9.84,2.208c-2.976,1.472 -5.328,3.552 -7.056,6.24l-0,-7.488l-8.736,0l-0,52.608l8.736,0l-0,-29.088c-0,-5.504 1.36,-9.696 4.08,-12.576c2.72,-2.88 6.384,-4.32 10.992,-4.32c4.544,0 8.128,1.392 10.752,4.176c2.624,2.784 3.936,6.8 3.936,12.048l-0,29.76l8.64,0l-0,-31.008c-0,-7.296 -1.984,-12.88 -5.952,-16.752c-3.968,-3.872 -9.152,-5.808 -15.552,-5.808Zm-125.856,0c-3.776,0 -7.184,0.736 -10.224,2.208c-3.04,1.472 -5.424,3.552 -7.152,6.24l-0,-25.92l-8.736,0l-0,71.04l8.736,-0l-0,-29.088c-0,-5.504 1.36,-9.696 4.08,-12.576c2.72,-2.88 6.384,-4.32 10.992,-4.32c4.544,0 8.128,1.392 10.752,4.176c2.624,2.784 3.936,6.8 3.936,12.048l-0,29.76l8.64,-0l-0,-31.008c-0,-4.864 -0.912,-8.992 -2.736,-12.384c-1.824,-3.392 -4.336,-5.936 -7.536,-7.632c-3.2,-1.696 -6.784,-2.544 -10.752,-2.544Zm586.848,-17.472l-8.736,0l-0,71.04l8.736,-0l-0,-71.04Zm-554.784,44.544c-0,5.312 1.088,10.048 3.264,14.208c2.176,4.16 5.152,7.392 8.928,9.696c3.776,2.304 8,3.456 12.672,3.456c4.544,-0 8.528,-1.008 11.952,-3.024c3.424,-2.016 6,-4.56 7.728,-7.632l-0,9.792l8.832,-0l-0,-52.608l-8.832,-0l-0,9.6c-1.664,-3.008 -4.192,-5.504 -7.584,-7.488c-3.392,-1.984 -7.392,-2.976 -12,-2.976c-4.672,-0 -8.912,1.12 -12.72,3.36c-3.808,2.24 -6.8,5.392 -8.976,9.456c-2.176,4.064 -3.264,8.784 -3.264,14.16Zm44.544,0.096c-0,3.968 -0.8,7.44 -2.4,10.416c-1.6,2.976 -3.76,5.248 -6.48,6.816c-2.72,1.568 -5.712,2.352 -8.976,2.352c-3.264,0 -6.24,-0.784 -8.928,-2.352c-2.688,-1.568 -4.832,-3.84 -6.432,-6.816c-1.6,-2.976 -2.4,-6.48 -2.4,-10.512c-0,-3.968 0.8,-7.424 2.4,-10.368c1.6,-2.944 3.744,-5.184 6.432,-6.72c2.688,-1.536 5.664,-2.304 8.928,-2.304c3.264,-0 6.256,0.784 8.976,2.352c2.72,1.568 4.88,3.824 6.48,6.768c1.6,2.944 2.4,6.4 2.4,10.368Zm474.432,-17.664l-0,-8.544l-8.736,-0l-0,52.608l8.736,-0l-0,-28.608c-0,-10.624 4.896,-15.936 14.688,-15.936l2.304,-0l-0,-9.024c-4.096,-0 -7.568,0.832 -10.416,2.496c-2.848,1.664 -5.04,4 -6.576,7.008Zm-638.688,17.664c-0,5.504 1.088,10.304 3.264,14.4c2.176,4.096 5.2,7.264 9.072,9.504c3.872,2.24 8.304,3.36 13.296,3.36c6.336,-0 11.616,-1.616 15.84,-4.848c4.224,-3.232 7.04,-7.536 8.448,-12.912l-9.408,-0c-0.96,3.328 -2.72,5.888 -5.28,7.68c-2.56,1.792 -5.76,2.688 -9.6,2.688c-4.992,-0 -9.024,-1.728 -12.096,-5.184c-3.072,-3.456 -4.608,-8.352 -4.608,-14.688c-0,-6.272 1.536,-11.12 4.608,-14.544c3.072,-3.424 7.104,-5.136 12.096,-5.136c3.84,-0 7.056,0.928 9.648,2.784c2.592,1.856 4.336,4.384 5.232,7.584l9.408,-0c-1.344,-5.568 -4.112,-9.92 -8.304,-13.056c-4.192,-3.136 -9.52,-4.704 -15.984,-4.704c-4.992,-0 -9.424,1.12 -13.296,3.36c-3.872,2.24 -6.896,5.392 -9.072,9.456c-2.176,4.064 -3.264,8.816 -3.264,14.256Zm-13.152,-12.48l-38.304,-0l-0,7.392l38.304,-0l-0,-7.392Zm-63.552,-5.184l-0,-8.544l-8.736,-0l-0,52.608l8.736,-0l-0,-28.608c-0,-10.624 4.896,-15.936 14.688,-15.936l2.304,-0l-0,-9.024c-4.096,-0 -7.568,0.832 -10.416,2.496c-2.848,1.664 -5.04,4 -6.576,7.008Zm440.16,-9.504c-3.584,-0 -6.864,0.736 -9.84,2.208c-2.976,1.472 -5.328,3.552 -7.056,6.24l-0,-7.488l-8.736,-0l-0,52.608l8.736,-0l-0,-29.088c-0,-5.504 1.36,-9.696 4.08,-12.576c2.72,-2.88 6.384,-4.32 10.992,-4.32c4.544,-0 8.128,1.392 10.752,4.176c2.624,2.784 3.936,6.8 3.936,12.048l-0,29.76l8.64,-0l-0,-31.008c-0,-7.296 -1.984,-12.88 -5.952,-16.752c-3.968,-3.872 -9.152,-5.808 -15.552,-5.808Zm-40.512,0.96l-8.736,-0l-0,52.608l8.736,-0l-0,-52.608Zm-502.176,44.544l-16.416,-44.544l-9.408,-0l20.64,52.608l10.176,-0l20.64,-52.608l-9.312,-0l-16.32,44.544Zm770.688,8.928c4.992,-0 9.536,-1.12 13.632,-3.36c4.096,-2.24 7.344,-5.424 9.744,-9.552c2.4,-4.128 3.6,-8.912 3.6,-14.352c-0,-5.44 -1.168,-10.208 -3.504,-14.304c-2.336,-4.096 -5.52,-7.248 -9.552,-9.456c-4.032,-2.208 -8.544,-3.312 -13.536,-3.312c-4.992,-0 -9.504,1.104 -13.536,3.312c-4.032,2.208 -7.216,5.376 -9.552,9.504c-2.336,4.128 -3.504,8.88 -3.504,14.256c-0,5.44 1.136,10.224 3.408,14.352c2.272,4.128 5.408,7.312 9.408,9.552c4,2.24 8.464,3.36 13.392,3.36Zm-0,-7.68c-3.136,-0 -6.016,-0.72 -8.64,-2.16c-2.624,-1.44 -4.72,-3.632 -6.288,-6.576c-1.568,-2.944 -2.352,-6.56 -2.352,-10.848c-0,-4.224 0.8,-7.808 2.4,-10.752c1.6,-2.944 3.728,-5.136 6.384,-6.576c2.656,-1.44 5.584,-2.16 8.784,-2.16c3.136,-0 6.048,0.72 8.736,2.16c2.688,1.44 4.864,3.632 6.528,6.576c1.664,2.944 2.496,6.528 2.496,10.752c-0,4.224 -0.848,7.808 -2.544,10.752c-1.696,2.944 -3.92,5.152 -6.672,6.624c-2.752,1.472 -5.696,2.208 -8.832,2.208Zm-31.584,-45.792l-8.64,-0l-11.904,44.256l-12.768,-44.256l-8.928,-0l-13.056,44.16l-12.096,-44.16l-8.928,-0l16.512,52.608l9.024,-0l12.672,-41.76l12.672,41.76l9.024,-0l16.416,-52.608Zm-656.832,24.288c-0,-4.8 -1.04,-9.104 -3.12,-12.912c-2.08,-3.808 -5.04,-6.8 -8.88,-8.976c-3.84,-2.176 -8.256,-3.264 -13.248,-3.264c-5.12,-0 -9.648,1.104 -13.584,3.312c-3.936,2.208 -6.992,5.36 -9.168,9.456c-2.176,4.096 -3.264,8.864 -3.264,14.304c-0,5.44 1.12,10.224 3.36,14.352c2.24,4.128 5.328,7.312 9.264,9.552c3.936,2.24 8.4,3.36 13.392,3.36c6.272,-0 11.52,-1.584 15.744,-4.752c4.224,-3.168 7.04,-7.28 8.448,-12.336l-9.408,-0c-1.024,2.944 -2.8,5.296 -5.328,7.056c-2.528,1.76 -5.68,2.64 -9.456,2.64c-4.608,-0 -8.528,-1.456 -11.76,-4.368c-3.232,-2.912 -5.008,-6.96 -5.328,-12.144l42.048,-0c0.192,-1.856 0.288,-3.616 0.288,-5.28Zm-9.024,-1.824l-33.216,-0c0.448,-4.992 2.224,-8.896 5.328,-11.712c3.104,-2.816 6.864,-4.224 11.28,-4.224c3.072,-0 5.872,0.624 8.4,1.872c2.528,1.248 4.528,3.072 6,5.472c1.472,2.4 2.208,5.264 2.208,8.592Z" style="fill:#fff;"/></svg>