<?xml version="1.0" encoding="UTF-8" standalone="no"?>
<!DOCTYPE svg PUBLIC "-//W3C//DTD SVG 1.1//EN" "http://www.w3.org/Graphics/SVG/1.1/DTD/svg11.dtd">
<svg width="100%" height="100%" viewBox="0 0 387 241" version="1.1" xmlns="http://www.w3.org/2000/svg" xmlns:xlink="http://www.w3.org/1999/xlink" xml:space="preserve" xmlns:serif="http://www.serif.com/" style="fill-rule:evenodd;clip-rule:evenodd;stroke-linejoin:round;stroke-miterlimit:2;">
    <g transform="matrix(1,0,0,1,-1383,-902.001)">
        <g transform="matrix(0.999453,0,0,1.6106,1233.41,214.502)">
            <g id="Image" transform="matrix(1.00057,0,0,0.622264,-0.19503,-0.647355)">
                <g transform="matrix(0.896157,0,0,0.522958,15.5537,586.603)">
                    <rect x="149.781" y="192.013" width="431.833" height="457.912" style="fill:rgb(229,229,229);"/>
                </g>
                <g id="Illustration" transform="matrix(0.130182,0,0,0.129343,-192.292,736.907)">
                    <g transform="matrix(1,0,0,1.03698,0,-39.9336)">
                        <rect x="3154" y="38.51" width="1920" height="1041.49" style="fill:rgb(79,84,255);"/>
                    </g>
                    <g transform="matrix(62.9846,0,0,12.2724,-94893.1,-9362.71)">
                        <rect x="1567.35" y="817.495" width="9.147" height="12.983" style="fill:white;"/>
                    </g>
                    <g transform="matrix(5.48945,0,0,5.46132,-4611.57,-3770.25)">
                        <ellipse cx="1551.23" cy="827.614" rx="6.996" ry="7.066" style="fill:rgb(79,84,255);"/>
                    </g>
                    <g transform="matrix(62.9846,0,0,12.2724,-94893.1,-9572.33)">
                        <rect x="1567.35" y="817.495" width="9.147" height="12.983" style="fill:white;"/>
                    </g>
                    <g transform="matrix(5.48945,0,0,5.46132,-4611.57,-3979.86)">
                        <ellipse cx="1551.23" cy="827.614" rx="6.996" ry="7.066" style="fill:rgb(79,84,255);"/>
                    </g>
                    <g transform="matrix(62.9846,0,0,12.2724,-94893.1,-9781.95)">
                        <rect x="1567.35" y="817.495" width="9.147" height="12.983" style="fill:white;"/>
                    </g>
                    <g transform="matrix(5.48945,0,0,5.46132,-4611.57,-4189.48)">
                        <ellipse cx="1551.23" cy="827.614" rx="6.996" ry="7.066" style="fill:rgb(79,84,255);"/>
                    </g>
                </g>
            </g>
        </g>
    </g>
</svg>
