<?xml version="1.0" encoding="UTF-8" standalone="no"?>
<!DOCTYPE svg PUBLIC "-//W3C//DTD SVG 1.1//EN" "http://www.w3.org/Graphics/SVG/1.1/DTD/svg11.dtd">
<svg width="100%" height="100%" viewBox="0 0 388 241" version="1.1" xmlns="http://www.w3.org/2000/svg" xmlns:xlink="http://www.w3.org/1999/xlink" xml:space="preserve" xmlns:serif="http://www.serif.com/" style="fill-rule:evenodd;clip-rule:evenodd;stroke-linecap:square;stroke-linejoin:round;stroke-miterlimit:1.5;">
    <g transform="matrix(1,0,0,1,-972.033,-902.001)">
        <g transform="matrix(0.999735,0,0,1.6106,822.292,214.983)">
            <g id="Image" transform="matrix(1.00038,0,0,0.622264,-0.0571964,-0.946394)">
                <g transform="matrix(0.896157,0,0,0.522958,15.5537,586.603)">
                    <rect x="149.781" y="192.013" width="431.833" height="457.912" style="fill:rgb(229,229,229);"/>
                </g>
                <g id="Illustration" transform="matrix(0.999883,0,0,0.997786,-411.167,-236.475)">
                    <g>
                        <g transform="matrix(0.114713,0,0,0.117253,501.597,975.541)">
                            <rect x="2270.35" y="0" width="834" height="1194" style="fill:rgb(79,84,255);"/>
                        </g>
                        <g transform="matrix(1.68017,0,0,1.47483,-1177.66,-215.394)">
                            <rect x="1185.06" y="890.61" width="19.207" height="11.823" style="fill:white;"/>
                        </g>
                        <g transform="matrix(1.68017,0,0,1.47483,-1217.06,-215.394)">
                            <rect x="1185.06" y="890.61" width="19.207" height="11.823" style="fill:white;"/>
                        </g>
                        <g transform="matrix(2.12889,0,0,10.1435,-1746.3,-7090.8)">
                            <rect x="1183.88" y="798.536" width="33.666" height="8.137" style="fill:white;"/>
                        </g>
                        <g transform="matrix(1.14103,0,0,1.07846,-576.802,132.697)">
                            <rect x="1183.88" y="798.536" width="33.666" height="8.137" style="fill:white;"/>
                        </g>
                    </g>
                    <g>
                        <g transform="matrix(0.114713,0,0,0.117253,390.916,975.541)">
                            <rect x="2270.35" y="0" width="834" height="1194" style="fill:rgb(79,84,255);"/>
                        </g>
                        <g transform="matrix(-1,0,0,1,1807.6,1.74343)">
                            <path d="M1094.85,1057.31L1121.96,1030.28" style="fill:none;stroke:white;stroke-width:6.5px;"/>
                        </g>
                        <g transform="matrix(1,0,0,1,-409.212,1.74343)">
                            <path d="M1094.85,1057.31L1121.96,1030.28" style="fill:none;stroke:white;stroke-width:6.5px;"/>
                        </g>
                    </g>
                </g>
            </g>
        </g>
    </g>
</svg>
