<?xml version="1.0" encoding="UTF-8" standalone="no"?><!DOCTYPE svg PUBLIC "-//W3C//DTD SVG 1.1//EN" "http://www.w3.org/Graphics/SVG/1.1/DTD/svg11.dtd"><svg width="100%" height="100%" viewBox="0 0 66 39" version="1.1" xmlns="http://www.w3.org/2000/svg" xmlns:xlink="http://www.w3.org/1999/xlink" xml:space="preserve" xmlns:serif="http://www.serif.com/" style="fill-rule:evenodd;clip-rule:evenodd;stroke-linejoin:round;stroke-miterlimit:2;"><path d="M30.624,30.537c-0.29,-0.143 -0.699,-0.164 -0.729,-0.168l-0.686,-0.079l-0.68,0.135l-0.834,0.052l-0.688,0.013l-0.341,0.021l-0.296,0.111c0,0 -0.077,0.004 -0.454,0.059c-0.377,0.054 -0.679,0.073 -0.679,0.073c-0,0 -0.077,0.005 -0.337,0.082c-0.263,0.078 -0.413,0.087 -0.413,0.087l-0.574,-0.055c0,0 -0.305,-0.012 -0.494,0c-0.19,0.012 -0.417,0.027 -0.72,0.046c-0.304,0.019 -0.415,0.057 -0.717,0.106c-0.301,0.049 -0.602,0.099 -0.602,0.099l-0.491,0.061c-0,0 0.074,-0.035 -0.337,0.083c-0.41,0.117 -1.421,0.364 -2.217,0.414c-0.796,0.05 -0.722,0.015 -1.097,0.099c-0.375,0.085 -1.086,0.252 -1.086,0.252c0,0 -0.485,0.153 -0.75,0.2c-0.262,0.047 -0.671,0.195 -0.858,0.237c-0.188,0.042 -0.637,0.162 -0.637,0.162l-0.366,0.237c0,0 -0.034,0.063 -0.333,0.143c-0.3,0.08 -0.826,0.174 -0.826,0.174l-0.374,0.085l-0.259,0.108c0,0 -0.453,0.059 -0.639,0.132c-0.185,0.072 -0.928,0.363 -0.928,0.363l-0.559,0.188c0,0 -0.042,-0.059 -0.224,0.075c-0.18,0.134 -0.623,0.375 -0.623,0.375c0,0 -0.32,0.326 -0.343,0.571c-0.023,0.246 0.121,0.725 0.121,0.725c0,0 0.055,0.272 0.33,0.407c0.275,0.135 0.129,0.236 0.476,0.306c0.346,0.07 0.236,0.138 0.653,0.111c0.417,-0.026 0.37,-0.176 0.745,-0.26c0.375,-0.085 -0.038,0.002 0.413,-0.087c0.451,-0.09 0.18,-0.134 0.712,-0.167c0.529,-0.034 0.444,-0.181 0.741,-0.291c0.298,-0.111 0.402,-0.27 0.997,-0.49c0.595,-0.221 1.466,-0.276 2.175,-0.504c0.707,-0.227 1,-0.398 1.639,-0.53c0.639,-0.132 0.779,-0.324 1.385,-0.362c0.606,-0.038 0.536,0.058 1.283,-0.142c0.748,-0.2 0.79,-0.141 1.387,-0.331c0.597,-0.191 0.974,-0.245 1.197,-0.32c0.224,-0.075 0.339,-0.052 1.239,-0.261c0.898,-0.209 1.203,-0.228 1.617,-0.285c0.415,-0.057 0.53,-0.033 0.979,-0.153c0.449,-0.12 0.372,-0.146 0.637,-0.162c0.265,-0.017 0.117,0.053 0.303,-0.019c0.184,-0.073 0.413,-0.088 1.017,-0.156c0.603,-0.069 0.72,-0.046 1.095,-0.13c0.374,-0.085 0.694,-0.072 0.99,-0.212c0.295,-0.141 0.456,-0.123 0.456,-0.123c0,0 0.101,-0.342 0.086,-0.585c-0.016,-0.243 0.001,-0.513 0.001,-0.513l-0.483,-0.007Z" style="fill:#231f20;"/><path d="M64.996,35.541c-0.848,-0.396 -1.298,-0.519 -1.298,-0.519c0,0 -1.081,-0.381 -1.634,-0.631c-0.554,-0.25 -1.043,-0.378 -1.413,-0.533c-0.37,-0.153 -0.753,-0.193 -1.008,-0.335c-0.256,-0.142 -0.89,-0.362 -1.405,-0.607c-0.515,-0.246 -1.119,-0.386 -1.119,-0.386c-0,0 -0.378,-0.078 -0.756,-0.155c-0.379,-0.078 -0.527,-0.131 -0.871,-0.167c-0.344,-0.036 -0.573,-0.059 -0.573,-0.059c-0,0 -0.943,-0.028 -2.779,-0.564c-1.838,-0.537 -3.66,-0.618 -4.497,-0.743c-0.837,-0.125 -1.406,-0.222 -1.635,-0.246c-0.229,-0.023 -0.267,-0.027 -0.497,-0.052c-0.229,-0.022 -0.301,-0.068 -0.722,-0.112c-0.42,-0.043 -0.879,-0.09 -0.879,-0.09c0,0 -1.651,-0.19 -3.328,-0.4c-1.678,-0.211 -2.276,-0.203 -3.052,-0.167c-0.776,0.036 -1.2,0.03 -1.468,0.004c-0.267,-0.029 -0.619,0.013 -0.619,0.013l-0.707,0.12l-0.589,0.094c0,0 -0.226,-0.061 -0.368,0.193c-0.142,0.256 -0.265,0.173 -0.173,0.414c0.091,0.24 -0.019,0.179 -0.019,0.179c0,0 -0.024,0.228 0.244,0.256c0.267,0.027 0.42,0.044 0.42,0.044c-0,0 0.328,0.187 0.519,0.208c0.191,0.019 0.917,0.093 1.154,0.04c0.238,-0.053 1.354,-0.015 1.977,-0.066c0.623,-0.053 1.808,-0.025 2.614,0.019c0.807,0.045 4.271,0.435 6.033,0.578c1.762,0.142 1.609,0.221 2.487,0.312c0.88,0.091 0.799,0.216 1.296,0.267c0.497,0.051 0.943,0.211 1.669,0.287c0.726,0.075 0.99,0.14 1.258,0.168c0.267,0.028 0.152,0.015 0.569,0.097c0.416,0.081 0.68,0.147 0.68,0.147c-0,0 -0.123,0.065 0.221,0.099c0.344,0.036 1.479,0.269 2.609,0.54c1.131,0.271 1.787,0.648 2.013,0.709c0.225,0.062 1.386,0.413 1.386,0.413c0,0 0.332,0.149 0.863,0.244c0.531,0.093 0.741,0.307 1.153,0.427c0.412,0.119 0.294,0.145 0.485,0.166c0.191,0.019 0.688,0.07 0.688,0.07c-0,0 0.615,0.025 0.672,0.224c0.057,0.199 0.083,0.318 0.083,0.318l0.436,-0.11l0.112,-0.335l-0.232,-0.373Z" style="fill:#231f20;"/><path d="M26.112,7.88c0.055,0 0.711,0.337 1.205,0.731c0.493,0.393 1.206,1.404 1.808,2.584c0.603,1.18 1.59,5.562 1.699,6.798c0.11,1.236 0.658,4.607 0.822,7.136c0.164,2.528 0.3,6.124 0.3,7.135c-0,1.012 0.04,1.742 0.04,1.742c0.141,0.612 -0.072,1.76 0.251,1.667c0.278,-0.081 0.392,-0.539 0.392,-0.876c0,-0.338 0.047,-0.879 0.101,-1.328c0.055,-0.45 0.269,-2.34 0.369,-2.962c0.101,-0.623 0.24,-1.558 0.24,-1.558c0,0 0.553,-4.326 0.992,-5.618c0.438,-1.292 1.256,-5.663 3.28,-8.596c2.023,-2.933 4.445,-5.338 6.746,-6.799c2.302,-1.46 2.357,-1.634 3.507,-2.139c1.151,-0.506 1.479,-1.124 3.342,-1.686c1.863,-0.562 1.918,-0.73 2.356,-0.843c0.438,-0.112 0.987,-0.164 0.987,-0.164l0.493,-0.337l-0.055,-0.281c0,0 -0.823,0 -1.589,0.113c-0.767,0.112 -1.699,0.393 -1.699,0.393l-0.712,0.169l-1.534,0.618l0.657,-0.562c0,0 -1.041,0.674 -2.191,1.123c-1.152,0.45 -2.028,1.012 -2.028,1.012c-0,0 -2.575,1.461 -3.944,2.415c-1.37,0.956 -2.192,1.855 -3.123,2.697c-0.932,0.843 -2.959,3.259 -3.452,3.99c-0.494,0.73 -1.041,1.854 -1.041,1.854l-0.603,1.236l-0.548,1.067l-0.329,1.068l-0.438,1.236c0,0 -0.055,-1.236 -0.219,-2.248c-0.164,-1.011 -0.658,-2.584 -0.822,-3.202c-0.164,-0.618 -0.822,-2.641 -1.48,-4.102c-0.657,-1.46 -1.424,-2.416 -1.753,-2.809c-0.329,-0.393 -1.371,-0.899 -1.371,-0.899l-0.601,-0.225c-0,0 -0.384,-0.055 -0.712,-0.055l-0.713,0l-0.109,0.337c0,0 0.328,0.055 0.602,0.055c0.273,0 0.822,0.113 0.877,0.113Z" style="fill:#3351a3;"/><path d="M44.779,0.324c-0,0 -1.016,-0.418 -1.614,-0.119c-0.598,0.298 -0.836,0.358 -1.314,0.597c-0.479,0.239 -1.077,0.538 -1.136,0.837c-0.06,0.299 -0.299,1.016 -0.239,1.315c0.059,0.299 0.119,0.836 0.717,1.195c0.598,0.359 0.658,0.538 1.315,0.538c0.657,0 1.315,-0.179 1.912,-0.598c0.598,-0.418 1.136,-0.657 1.315,-1.015c0.179,-0.359 0.598,-0.897 0.359,-1.555c-0.239,-0.657 -0.658,-0.956 -0.658,-0.956l-0.657,-0.239Z" style="fill:#ffcb03;"/><path d="M40.153,14.351c-0.042,-0.099 -0.321,-0.163 -0.476,0.121c-0.155,0.284 -0.646,0.697 -0.646,0.697c0,0 -0.182,0.818 -0.241,1.059c-0.059,0.241 -0.416,1.733 -0.416,1.733c0,0 -0.453,2.51 -0.49,3.24c-0.036,0.729 -0.187,1.891 -0.187,1.891l-0.162,1.356l0.196,0.79c0,0 -0.086,0.776 0.144,0.886c0.23,0.109 0.317,0.26 0.546,0.37c0.23,0.11 0.465,0.122 0.699,0.135c0.235,0.012 0.706,-0.012 0.706,-0.012l0.155,-0.284l-0.027,-0.391l-0.075,-0.394c0.111,-0.335 0.247,-0.231 -0.017,-0.586c-0.265,-0.355 -0.357,-1.335 -0.331,-1.87c0.027,-0.535 0.532,-3.14 0.608,-3.721c0.076,-0.581 0.396,-1.343 0.711,-2.009c0.316,-0.666 0.483,-1.193 0.483,-1.193l0.088,-0.824c0,0 -0.211,-0.499 -0.529,-0.711c-0.319,-0.212 -0.697,-0.183 -0.739,-0.283Z" style="fill:#ed1c24;"/><path d="M44.082,29.26l-0.398,0.402c0,0 -0.336,0.122 -0.571,0.11c-0.234,-0.013 -0.691,-0.274 -0.691,-0.274l-0.206,-0.528l-0.008,-0.707l0.064,-1.172c0,0 0.733,-4.806 1.219,-6.802c0.485,-1.997 0.706,-2.596 0.706,-2.596c-0,0 0.627,-1.203 0.69,-1.482c0.062,-0.279 0.56,-0.634 0.86,-0.946c0.299,-0.313 0.825,-0.473 0.825,-0.473l0.564,0.031c0,0 0.82,0.468 1.017,1.185c0.196,0.716 0.466,1.692 0.466,1.692l0.144,0.807l0.043,0.943l0.238,0.813l0.118,1.277l0.178,1.045l0.248,-0.222c0,0 1.449,-2.326 2.097,-3.192c1.368,-1.833 2.494,-1.844 3.336,-2.786c0.2,-0.224 0.657,-0.254 1.048,-0.515c0.391,-0.261 0.914,-0.189 1.82,-0.422c0.907,-0.232 1.547,-0.116 1.547,-0.116l1.217,0.114c0,0 1.473,0.598 1.783,0.944c0.31,0.346 0.668,1.042 1.104,1.678c0.436,0.635 0.529,1.134 0.589,1.748c0.061,0.615 0.197,1.818 0.197,1.818l-0.116,1.264c-0,0 -0.224,0.647 -0.414,1.53c-0.189,0.884 -0.566,1.757 -0.566,1.757l-0.122,0.511l-0.346,0.31c0,0 -0.06,0.232 -0.076,0.514c-0.015,0.281 -0.129,0.651 -0.129,0.651l-0.211,0.412l-0.166,0.462l-0.414,0.682l-0.343,1.111l-0.315,0.594l-0.258,0.41c-0,0 -0.166,0.461 -0.398,0.401c-0.232,-0.059 -0.688,-0.32 -0.688,-0.32l-0.279,-0.062c0,0 -0.17,-0.339 -0.157,-0.573c0.013,-0.235 0.278,-0.785 0.278,-0.785c-0,0 0.219,-0.553 0.477,-0.962c0.257,-0.409 0.54,-1.287 0.759,-1.84c0.218,-0.553 0.447,-1.293 0.447,-1.293l-0.073,-0.38l-0.43,0.117l-0.373,-0.067l-0.592,-0.362c0,0 -0.247,0.222 -0.56,-0.077c-0.313,-0.3 -0.689,-0.321 -0.689,-0.321c-0,0 -0.666,0.152 -1.047,0.226c-0.38,0.073 -0.818,0.331 -0.818,0.331l-0.731,0.478c0,0 -0.438,0.258 -0.555,0.675c-0.117,0.417 -0.932,0.702 -0.145,0.933c0.787,0.231 1.009,0.479 1.538,0.273c0.528,-0.207 1.669,-0.427 1.669,-0.427l0.524,-0.112l0.475,-0.069l0.281,0.016l0.256,0.484l-0.013,0.235c0,0 -0.297,0.266 -0.586,0.391c-0.289,0.125 -0.487,0.303 -0.914,0.374c-0.428,0.07 -1.056,0.366 -1.67,0.426c-0.615,0.06 -1.329,0.21 -2.22,0.161c-0.892,-0.049 -1.504,-0.036 -1.72,-0.377c-0.217,-0.341 -0.366,-1.055 -0.15,-1.56c0.215,-0.506 1.374,-1.901 2.202,-2.42c0.828,-0.52 1.714,-1.224 2.568,-1.366c0.855,-0.141 1.475,-0.295 2.119,-0.025c0.644,0.271 0.727,0.463 1.001,0.62c0.274,0.156 0.401,0.398 0.401,0.398l0.076,0.333l0.266,0.298c0,0 0.377,-0.874 0.547,-1.382c0.168,-0.508 1.212,-3.943 0.869,-5.097c-0.987,-3.328 -2.857,-4.168 -6.377,-2.216c0,0 -0.744,0.607 -1.035,0.779c-0.292,0.172 -0.452,0.515 -0.491,0.548l-0.629,0.546l-0.715,0.932c-1.087,1.358 -1.912,2.141 -2.126,3.902c-0.085,0.7 -0.517,1.303 -0.517,1.303c-0,0 -0.017,0.328 -0.036,0.656c-0.017,0.328 -0.03,0.563 -0.043,0.797c-0.013,0.235 -0.038,0.704 -0.038,0.704l0.06,0.615l0.308,0.393c0,0 0.008,0.707 -0.284,0.879c-0.291,0.172 -0.823,0.425 -1.096,0.269c-0.274,-0.156 -0.842,-0.093 -1.002,-0.619c-0.159,-0.526 -0.724,-3.098 -0.703,-3.473c0.02,-0.376 0.012,-1.081 0.012,-1.081l-0.334,-0.772c0,0 -0.49,-2.238 -0.555,-2.758c-0.066,-0.522 -0.311,-1.194 -0.311,-1.194l-0.058,-0.662l-0.113,-0.523l-0.256,-0.485l-0.393,0.308c0,0 -0.42,1.671 -0.649,2.411c-0.229,0.74 -0.574,2.744 -0.672,3.68c-0.098,0.936 -0.298,2.007 -0.298,2.007l-0.051,0.938l-0.133,0.698l0.014,0.612l-0.192,0.931Z" style="fill:#ed1c24;"/><path d="M64.969,10.479c-0.207,0.294 -0.52,0.43 -0.646,0.652c-0.127,0.222 -0.609,0.654 -0.609,0.654l-0.326,0.364l-0.414,0.589c0,0 -0.128,0.259 -0.327,0.401c-0.198,0.142 -0.44,0.358 -0.44,0.358l-0.335,0.554l-0.32,0.25c0,0 -0.213,0.409 -0.109,0.605c0.104,0.197 0.54,0.602 0.54,0.602l0.685,0.038l0.548,-0.237l0.251,-0.407c0,0 -0.068,-0.156 0.099,-0.414c0.167,-0.257 0.203,-0.218 0.292,-0.443c0.088,-0.224 0.092,-0.299 0.092,-0.299c0,0 -0.044,0.111 0.167,-0.258c0.211,-0.371 0.376,-0.591 0.473,-0.968c0.097,-0.377 0.283,-0.976 0.283,-0.976l0.179,-0.488c0,0 0.157,-0.067 0.093,-0.3c-0.064,-0.233 -0.176,-0.277 -0.176,-0.277Z" style="fill:#ed1c24;"/><path d="M2.667,23.444c-0,0 -0.101,-0.985 -0.08,-1.479c0.023,-0.493 -0.04,-0.811 -0.04,-0.811l0.039,-0.305l-0.023,-0.945c0,0 -0.06,-0.221 -0.107,-0.496c-0.047,-0.275 0.124,-0.288 0.049,-0.505c-0.076,-0.216 -0.223,-0.359 -0.223,-0.359l-0.124,-0.809l-0.554,0.085l-0.359,0.261l-0.082,0.32l-0.291,-0.044l-0.231,0.032c-0.591,0.478 -0.512,1.592 -0.55,2.505l-0.01,0.247c-0.012,0.267 -0.081,0.465 -0.081,0.465c0,0 0.024,0.624 0.056,0.856c0.033,0.231 0.076,1.188 0.076,1.188l-0.007,0.537c-0.003,0.228 0.229,0.794 0.229,0.794l0.004,0.291l0.08,0.506l0.001,0.276c-0.075,1.103 0.956,4.357 1.128,5.52l0.152,0.433l0.168,0.621l0.121,0.347l0.184,0.664c0.55,1.373 0.835,2.993 1.648,4.232c0,0 -0.158,0.104 0.193,0.272c0.351,0.17 0.393,0.154 0.393,0.154l0.517,0.06c0.801,-0.201 0.539,-0.151 1.058,-0.809c0.468,-0.593 -0.775,-2.845 -1.022,-3.472c0,0 -0.433,-1.187 -0.738,-2.197c-0.305,-1.011 -0.377,-0.96 -0.377,-0.96l-0.092,-0.762l-0.186,-0.951l0.557,0.379c0,0 0.09,0.115 0.592,0.441c0.291,0.189 0.746,0.533 1.582,1.055c1.075,0.671 2.637,1.054 2.637,1.054l0.336,0.126l0.45,0.036l0.37,-0.052c1.343,0.185 1.523,-0.67 0.539,-0.864c-0.983,-0.195 -0.846,-0.176 -1.159,-0.267c-0.585,-0.17 -2.028,-0.874 -2.871,-1.514c-0.842,-0.639 -1.138,-0.948 -1.772,-2.217l-0.238,-0.537c0,0 -0.119,-0.201 -0.14,-0.679c-0.021,-0.479 0.078,-1.145 0.078,-1.145l0.249,-0.816l-0.005,-1.27l0.568,-0.879c0,0 0.071,-0.074 0.242,-0.279c0.171,-0.206 -0.025,-0.309 0.115,-0.601c0.141,-0.293 0.346,-0.581 0.352,-0.589l0.52,-0.738c0.5,-0.711 1.335,-2.326 3.539,-2.9c0.309,-0.08 0.766,-0.17 0.766,-0.17l1.804,0.432c-0,0 1.058,0.455 1.326,0.945c0.268,0.489 0.618,0.992 0.618,0.992l0.24,0.547l0.266,0.345c0,0 0.24,0.547 0.331,0.807c0.09,0.26 0.112,0.738 0.112,0.738c0,0 -0.086,0.03 -0.524,-0.108c-0.437,-0.139 -0.742,-0.178 -1.045,-0.072c-0.303,0.106 -1.186,0.22 -1.576,0.357c-0.39,0.136 -1.293,0.888 -1.923,1.449c-0.63,0.56 -0.184,0.445 -0.483,0.841c-0.299,0.396 -0.552,0.922 -0.552,0.922c-1.185,1.68 -1.365,5.107 1.543,5.388l0.653,0.063l0.464,-0.065l0.563,-0.196l0.45,0.037c1.174,-0.411 1.032,-0.131 2.475,-1.537l0.543,-0.531l0.199,-0.264c-0,0 -0.149,0.684 -0.143,1.119c0.006,0.435 -0.061,0.799 -0.061,0.799l-0.255,0.381l0.207,0.316l0.394,0.154l0.217,-0.076l0.392,0.009c0,0 0.276,0.097 0.623,-0.024c0.346,-0.121 0.374,-0.179 0.645,-0.516c0.271,-0.338 0.204,-0.946 0.204,-0.946l-0.115,-0.884c0,0 -0.338,-3.331 -0.469,-4.403c-0.132,-1.071 -0.299,-1.547 -0.299,-1.547l-0.226,-0.65l-0.215,-0.751l-0.225,-0.504l-0.105,-0.303c-0,0 -0.83,-1.568 -1.231,-2.157c-0.4,-0.589 -1.192,-1.187 -1.631,-1.47c-0.439,-0.284 -1.301,-0.663 -1.749,-0.555c-0.448,0.108 -1.593,0.168 -2.141,0.408c-2.597,1.138 -3.804,2.159 -5.537,4.341c-0.641,0.807 -1.005,1.711 -1.005,1.711l-0.381,0.717l-0.475,0.943l-0.129,-0.538Zm13.106,-0.221c0,0 -0.48,-0.124 -1.019,-0.276c-0.539,-0.151 -1.046,-0.071 -1.046,-0.071l-0.909,0.317c0,0 0.072,-0.073 -0.747,0.504c-1.106,0.781 -1.725,2.548 -1.444,3.854l0.136,0.389l0.597,0.18c0,0 0.729,0.28 0.989,0.189c1.325,-0.463 1.929,-0.324 3.219,-1.558l0.801,-0.766l0.152,-0.539c-0,0 0.045,-0.842 -0.063,-1.29c-0.107,-0.448 -0.33,-0.808 -0.33,-0.808l-0.336,-0.125Z" style="fill:#ed1c24;"/><path d="M23.792,13.922c-0,0 -0.526,0.166 -0.926,0.19c-0.4,0.025 -0.929,0.146 -0.929,0.146l-0.389,0.202l-0.515,0.344l-0.279,0.552l0.066,0.353l0.241,0.298c0.245,0.342 0.25,0.431 0.224,0.746c-0.026,0.314 -0.158,1.081 -0.219,1.531c-0.062,0.45 -0.216,2.334 -0.259,3.096c-0.043,0.761 -0.086,1.523 -0.086,1.523l0.005,1.562c0,0 0.123,2.76 0.186,3.069c0.064,0.309 0.288,1.054 0.288,1.054l0.238,0.253c0,0 0.581,0.009 0.848,-0.007c0.267,-0.016 0.659,-0.174 0.729,-0.49c0.07,-0.317 0.051,-0.629 0.051,-0.629l-0.199,-0.344l-0.127,-0.618c0,0 -0.099,-2.36 -0.031,-2.721c0.067,-0.361 0.165,-0.947 0.165,-0.947l0.159,-0.323c0,0 1.014,0.519 1.533,0.979c0.519,0.46 1.64,1.284 2.24,1.605c0.6,0.321 1.389,0.808 1.389,0.808l0.727,0.224l0.623,-0.038l0.256,-0.193l-0.013,-0.223l-0.344,-0.515c0,0 -0.283,-0.25 -0.611,-0.498c-0.327,-0.248 -0.474,-0.463 -0.799,-0.666c-0.325,-0.204 -1.213,-0.864 -1.213,-0.864c-0,0 -0.186,-0.123 -0.466,-0.329c-0.281,-0.206 -0.467,-0.329 -0.467,-0.329l-0.788,-0.488l-0.25,-0.431l-0.236,-0.209l-0.288,-0.34c0,0 -0.039,0.092 0.567,-0.212c0.607,-0.305 2.01,-1.462 2.556,-2.03c0.546,-0.569 0.613,-0.93 0.778,-1.164c0.164,-0.233 0.214,-0.146 0.242,-0.416c0.028,-0.27 0.043,-0.762 0.043,-0.762c0,0 0.05,-1.387 -0.233,-1.637c-0.283,-0.251 -0.807,-0.799 -0.807,-0.799l-0.775,-0.266l-0.945,-0.121l-0.979,0.059l-0.981,0.015Zm0.314,1.499c-0.381,0.335 -0.482,0.877 -0.482,0.877c0,0 -0.238,0.506 -0.224,0.728c0.014,0.222 -0.174,0.814 -0.174,0.814l-0.127,0.856l-0.134,0.722l0.027,0.445c0,0 1.36,-0.395 2.164,-1.113c0.805,-0.719 1.351,-1.288 1.538,-1.879c0.187,-0.592 -0.123,-1.287 -0.487,-1.399c-0.364,-0.112 -1.217,-0.194 -1.217,-0.194l-0.884,0.143Z" style="fill:#ed1c24;"/><path d="M30.391,10.228c-0.154,0.115 -0.595,-0.916 -0.843,-1.251c-0.423,-0.572 -0.874,-1.257 -1.814,-1.521l-0.706,-0.29l-0.303,-0.17l-0.553,-0.142l-0.747,0.036l-0.981,0.07c-1.064,0.594 -0.875,0.217 -0.938,0.967c0,0 0.629,0.217 1.235,0.344c1.27,0.266 1.587,0.995 2.437,1.722l0.522,1.187c0.175,0.4 -0.685,0.359 -0.685,0.359c-0,0 -1.082,0.116 -2.081,0.26c-0.999,0.144 -3.42,-0.375 -4.251,-1.279c-0.83,-0.904 -1.147,-2.22 -1.361,-3.036c-0.214,-0.816 -0.174,-1.745 -0.161,-2.054c0.013,-0.31 0.042,-0.992 0.042,-0.992l0.287,-0.918l0.139,-0.367l0.336,-0.606l0.464,-0.901l1.443,-0.373l0.638,-0.407c-2.61,-0.111 -1.672,-0.258 0.442,-0.168l0.643,-0.532c1.943,-0.494 4.749,0.138 6.271,1.558c0.418,0.39 1.301,1.431 1.474,1.748c0.172,0.318 0.487,1.639 0.487,1.639l-0.029,0.681c-0.011,0.267 -0.56,2.583 -0.046,1.233c0.139,-0.366 0.483,-2.194 0.335,-1.257l-0.3,1.897c0,0 -0.221,0.833 -0.366,1.323c-0.145,0.491 -0.662,0.965 -0.662,0.965l-0.368,0.275Z" style="fill:#b8d432;"/></svg>