<?xml version="1.0" encoding="UTF-8" standalone="no"?><!DOCTYPE svg PUBLIC "-//W3C//DTD SVG 1.1//EN" "http://www.w3.org/Graphics/SVG/1.1/DTD/svg11.dtd"><svg width="100%" height="100%" viewBox="0 0 680 164" version="1.1" xmlns="http://www.w3.org/2000/svg" xmlns:xlink="http://www.w3.org/1999/xlink" xml:space="preserve" xmlns:serif="http://www.serif.com/" style="fill-rule:evenodd;clip-rule:evenodd;stroke-linejoin:round;stroke-miterlimit:2;"><path d="M98.352,77.926c0.018,-0.023 0.046,-0.037 0.075,-0.037c0.072,0.001 0.145,0.001 0.217,0.001c8.397,0 14.699,-2.841 14.822,-10.005c0,-8.646 -10.254,-12.475 -21.124,-16.675c-12.599,-4.94 -25.936,-10.622 -25.936,-25.568c0,-15.563 13.464,-25.568 31.25,-25.568c14.061,0 25.594,5.061 33.155,12.631c0.453,0.45 0.43,1.2 -0.029,1.645l-10.43,10.112c-0.46,0.448 -1.187,0.408 -1.626,-0.058c-5.501,-5.842 -11.861,-8.767 -20.576,-8.767c-7.411,0 -12.601,3.582 -12.601,9.264c-0,6.3 8.031,9.511 17.416,13.217c13.339,5.311 29.397,11.61 29.397,29.52c0,18.775 -15.44,27.545 -34.335,27.545c-3.983,-0 -7.886,-0.491 -11.617,-1.406c-0.102,-0.025 -0.185,-0.101 -0.219,-0.201c-0.034,-0.1 -0.015,-0.21 0.05,-0.293c1.831,-2.321 11.516,-14.603 12.111,-15.358Zm-31.805,-4.947l-4.525,5.738c-0.279,-0.454 -0.206,-1.052 0.179,-1.435l4.346,-4.303Z" style="fill:#fff;fill-rule:nonzero;"/><path d="M189.921,63.067c0,-9.14 -5.806,-16.428 -14.452,-16.428c-5.978,0 -11.117,3.982 -13.262,9.793c-0.052,0.138 -0.078,0.29 -0.078,0.439l0,12.395c0,0.149 0.026,0.299 0.078,0.44c2.145,5.808 7.284,9.666 13.262,9.666c8.646,-0 14.452,-7.164 14.452,-16.305m17.786,0c0,18.034 -11.86,32.115 -28.656,32.115c-5.98,-0 -11.036,-1.844 -15.089,-5.059c-0.744,-0.591 -1.833,-0.043 -1.833,0.905l0,32.764c0,0.638 -0.517,1.155 -1.157,1.149l-15.489,-0.106c-0.629,-0.006 -1.137,-0.518 -1.137,-1.149l0,-90.349c0,-0.632 0.511,-1.149 1.146,-1.149l15.488,-0c0.635,-0 1.149,0.517 1.149,1.149l0,4.288c4.323,-4.202 10.005,-6.672 16.922,-6.672c16.796,0 28.656,14.081 28.656,32.114" style="fill:#fff;fill-rule:nonzero;"/><path d="M261.932,63.067c-0,-9.14 -5.929,-16.428 -14.451,-16.428c-8.77,0 -14.455,7.288 -14.455,16.428c0,9.141 5.685,16.305 14.455,16.305c8.522,-0 14.451,-7.164 14.451,-16.305m-46.689,0c-0,-18.033 13.466,-32.114 32.238,-32.114c18.651,0 32.235,14.081 32.235,32.114c-0,17.91 -13.584,32.115 -32.235,32.115c-18.772,-0 -32.238,-14.205 -32.238,-32.115" style="fill:#fff;fill-rule:nonzero;"/><path d="M291.451,72.331l-0,-69.873c-0,-0.632 0.514,-1.149 1.146,-1.149l15.739,-0c0.635,-0 1.149,0.517 1.149,1.149l-0,69.997c-0,5.064 2.594,7.534 6.423,7.534c1.904,0 3.398,-0.405 4.688,-1.416c0.502,-0.396 1.246,-0.241 1.605,0.29l7.308,10.855c0.339,0.503 0.247,1.201 -0.236,1.566c-3.366,2.534 -7.778,3.898 -13.242,3.898c-16.798,0 -24.58,-9.14 -24.58,-22.851" style="fill:#fff;fill-rule:nonzero;"/><path d="M351.476,56.151l21.935,0c0.729,0 1.295,-0.684 1.131,-1.393c-1.462,-6.297 -5.138,-9.847 -11.82,-9.847c-6.877,0 -10.671,3.826 -12.366,9.804c-0.204,0.718 0.371,1.436 1.12,1.436m38.995,12.105l-39.506,-0c-0.704,-0 -1.264,0.638 -1.143,1.33c1.258,7.356 5.345,11.763 13.394,11.763c5.785,-0 9.649,-1.919 13.757,-7.701c0.327,-0.46 0.942,-0.638 1.447,-0.385l10.798,5.342c0.575,0.288 0.825,1 0.532,1.572c-4.763,9.266 -14.262,15.006 -26.163,15.006c-21.619,-0 -31.868,-13.711 -31.868,-32.115c-0,-18.281 11.485,-32.238 31.25,-32.238c17.907,-0 28.9,12.599 28.9,32.115c0,1.404 -0.083,2.812 -0.247,4.282c-0.066,0.581 -0.568,1.029 -1.151,1.029" style="fill:#fff;fill-rule:nonzero;"/><path d="M463.139,54.916l0,37.882c0,0.635 -0.517,1.149 -1.149,1.149l-15.738,0c-0.635,0 -1.147,-0.514 -1.147,-1.149l0,-35.659c0,-6.299 -4.69,-10.499 -11.484,-10.499c-7.043,0 -12.601,5.064 -12.601,11.487l-0,34.671c-0,0.635 -0.518,1.149 -1.149,1.149l-15.736,0c-0.635,0 -1.146,-0.514 -1.146,-1.149l-0,-90.34c-0,-0.632 0.511,-1.149 1.146,-1.149l15.736,-0c0.631,-0 1.149,0.517 1.149,1.149l-0,33.416c-0,0.968 1.126,1.502 1.864,0.879c4.332,-3.648 9.812,-5.8 16.046,-5.8c14.451,0 24.209,9.388 24.209,23.963" style="fill:#fff;fill-rule:nonzero;"/><path d="M478.332,72.331l0,-69.873c0,-0.632 0.514,-1.149 1.146,-1.149l15.738,-0c0.635,-0 1.149,0.517 1.149,1.149l0,69.997c0,5.064 2.594,7.534 6.423,7.534c1.905,0 3.399,-0.405 4.688,-1.416c0.503,-0.396 1.247,-0.241 1.606,0.29l7.308,10.855c0.339,0.503 0.247,1.201 -0.236,1.566c-3.366,2.534 -7.779,3.898 -13.242,3.898c-16.798,0 -24.58,-9.14 -24.58,-22.851" style="fill:#fff;fill-rule:nonzero;"/><path d="M525.055,32.189l15.738,-0c0.632,-0 1.149,0.514 1.149,1.149l-0,59.461c-0,0.632 -0.517,1.149 -1.149,1.149l-15.738,0c-0.635,0 -1.146,-0.517 -1.146,-1.149l-0,-59.461c-0,-0.635 0.511,-1.149 1.146,-1.149m-2.258,-20.751c0,-8.316 10.505,-14.42 18.278,-6.316c0.074,0.077 0.146,0.169 0.204,0.258c5.081,7.851 -0.848,16.187 -8.356,16.187c-5.432,0 -10.126,-4.57 -10.126,-10.129" style="fill:#fff;fill-rule:nonzero;"/><path d="M616.158,33.767l-23.902,59.461c-0.175,0.434 -0.597,0.718 -1.065,0.718l-15.495,-0c-0.471,-0 -0.89,-0.284 -1.065,-0.721l-23.785,-59.458c-0.301,-0.758 0.256,-1.577 1.069,-1.577l16.741,-0c0.497,-0 0.934,0.316 1.092,0.787l12.607,37.94c0.35,1.049 1.83,1.051 2.18,0.003l12.725,-37.946c0.158,-0.468 0.595,-0.784 1.089,-0.784l16.744,-0c0.813,-0 1.367,0.822 1.065,1.577" style="fill:#fff;fill-rule:nonzero;"/><path d="M655.849,21.814l-11.142,-0c-0.854,-0 -1.408,-0.896 -1.029,-1.66l9.112,-18.329c0.192,-0.391 0.591,-0.638 1.025,-0.638l15.095,0c0.934,0 1.48,1.054 0.934,1.815l-13.061,18.33c-0.216,0.304 -0.563,0.482 -0.934,0.482m-17.942,34.338l21.935,0c0.729,0 1.298,-0.686 1.132,-1.396c-1.465,-6.296 -5.137,-9.844 -11.821,-9.844c-6.877,0 -10.668,3.823 -12.366,9.801c-0.204,0.721 0.371,1.439 1.12,1.439m38.997,12.102l-39.508,0c-0.704,0 -1.264,0.641 -1.143,1.333c1.261,7.356 5.346,11.763 13.394,11.763c5.785,-0 9.649,-1.919 13.76,-7.701c0.327,-0.463 0.942,-0.638 1.447,-0.388l10.798,5.346c0.574,0.284 0.824,0.999 0.531,1.568c-4.762,9.267 -14.262,15.009 -26.165,15.009c-21.619,-0 -31.868,-13.711 -31.868,-32.118c0,-18.277 11.487,-32.235 31.25,-32.235c17.907,0 28.9,12.596 28.9,32.112c0,1.407 -0.08,2.812 -0.247,4.286c-0.063,0.58 -0.565,1.025 -1.149,1.025" style="fill:#fff;fill-rule:nonzero;"/><path d="M446.148,128.411l-4.013,7.044c-0.161,0.281 -0.525,0.387 -0.798,0.215c-1.06,-0.675 -2.652,-1.39 -5.337,-1.39c-4.484,-0 -8.816,3.737 -8.816,9.936l-0,18.096c-0,0.319 -0.256,0.575 -0.575,0.575l-9.755,-0c-0.318,-0 -0.571,-0.256 -0.571,-0.575l-0,-36.193c-0,-0.319 0.253,-0.578 0.571,-0.578l8.693,0c0.295,0 0.542,0.224 0.571,0.517l0.546,5.234c2.539,-3.958 6.348,-6.497 10.68,-6.497c4.11,-0 6.541,0.942 8.692,2.892c0.201,0.181 0.247,0.489 0.112,0.724" style="fill:#fff;fill-rule:nonzero;"/><path d="M458.625,140.033l13.556,-0c0.365,-0 0.649,-0.353 0.571,-0.71c-0.864,-3.892 -3.088,-6.086 -7.178,-6.086c-4.211,-0 -6.509,2.372 -7.514,6.066c-0.098,0.362 0.189,0.73 0.565,0.73m24.353,7.319l-24.646,0c-0.353,0 -0.634,0.333 -0.58,0.684c0.741,4.518 3.206,7.233 8.121,7.233c3.524,-0 5.871,-1.178 8.376,-4.74c0.161,-0.227 0.471,-0.322 0.721,-0.198l6.73,3.335c0.29,0.141 0.417,0.503 0.27,0.79c-2.858,5.664 -8.629,9.177 -15.87,9.177c-13.073,0 -19.272,-8.29 -19.272,-19.418c0,-11.056 6.946,-19.495 18.895,-19.495c10.83,-0 17.48,7.62 17.48,19.421c0,1.045 -0.078,2.091 -0.225,3.211" style="fill:#fff;fill-rule:nonzero;"/><path d="M487.755,144.215c0,-11.277 7.169,-19.421 18.223,-19.421c2.8,0 6.018,0.417 8.919,1.778c0.207,0.098 0.342,0.313 0.342,0.543l0,8.425c0,0.466 -0.526,0.75 -0.894,0.466c-1.651,-1.27 -4.102,-2.097 -6.65,-2.097c-5.676,-0 -9.186,4.332 -9.186,10.306c-0,5.9 3.51,10.307 9.186,10.307c2.609,-0 5.01,-0.827 6.647,-2.091c0.368,-0.288 0.897,-0.006 0.897,0.462l-0,8.305c-0,0.212 -0.112,0.416 -0.296,0.519c-2.657,1.5 -6.159,1.916 -8.965,1.916c-11.054,0 -18.223,-8.14 -18.223,-19.418" style="fill:#fff;fill-rule:nonzero;"/><path d="M531.964,140.033l13.555,-0c0.365,-0 0.65,-0.353 0.572,-0.71c-0.865,-3.892 -3.088,-6.086 -7.178,-6.086c-4.211,-0 -6.509,2.372 -7.515,6.066c-0.097,0.362 0.19,0.73 0.566,0.73m24.353,7.319l-24.646,0c-0.353,0 -0.635,0.333 -0.58,0.684c0.741,4.518 3.206,7.233 8.12,7.233c3.525,-0 5.872,-1.178 8.377,-4.74c0.16,-0.227 0.471,-0.322 0.721,-0.198l6.73,3.335c0.29,0.141 0.416,0.503 0.27,0.79c-2.858,5.664 -8.629,9.177 -15.871,9.177c-13.072,0 -19.271,-8.29 -19.271,-19.418c-0,-11.056 6.945,-19.495 18.895,-19.495c10.829,-0 17.479,7.62 17.479,19.421c-0,1.045 -0.077,2.091 -0.224,3.211" style="fill:#fff;fill-rule:nonzero;"/><path d="M599.633,139.285l0,23.029c0,0.316 -0.258,0.572 -0.574,0.572l-9.758,-0c-0.316,-0 -0.572,-0.256 -0.572,-0.572l0,-21.684c0,-3.809 -2.838,-6.349 -6.945,-6.349c-4.257,0 -7.618,3.062 -7.618,6.946l0,21.087c0,0.316 -0.259,0.572 -0.575,0.572l-9.761,-0c-0.316,-0 -0.571,-0.256 -0.571,-0.572l0,-36.196c0,-0.316 0.255,-0.575 0.571,-0.575l8.71,0c0.29,0 0.531,0.213 0.572,0.497l0.531,3.835c2.835,-3.137 6.793,-5.079 11.349,-5.079c8.741,0 14.641,5.676 14.641,14.489" style="fill:#fff;fill-rule:nonzero;"/><path d="M607.322,154.731l17.715,-19.338c0.339,-0.368 0.075,-0.962 -0.422,-0.962l-16.793,-0c-0.319,-0 -0.571,-0.256 -0.571,-0.575l0,-7.738c0,-0.316 0.252,-0.575 0.571,-0.575l31.267,0c0.316,0 0.575,0.259 0.575,0.575l-0,7.043c-0,0.144 -0.055,0.282 -0.152,0.388l-17.793,19.487c-0.336,0.37 -0.077,0.962 0.423,0.962l17.094,0c0.319,0 0.577,0.259 0.577,0.575l-0,7.741c-0,0.316 -0.258,0.572 -0.577,0.572l-31.491,-0c-0.316,-0 -0.572,-0.256 -0.572,-0.572l0,-7.196c0,-0.143 0.055,-0.281 0.149,-0.387" style="fill:#fff;fill-rule:nonzero;"/><path d="M655.193,140.033l13.558,-0c0.365,-0 0.649,-0.353 0.571,-0.71c-0.864,-3.892 -3.09,-6.086 -7.178,-6.086c-4.211,-0 -6.509,2.372 -7.517,6.066c-0.098,0.362 0.189,0.73 0.566,0.73m24.353,7.319l-24.646,0c-0.354,0 -0.635,0.333 -0.581,0.684c0.744,4.518 3.209,7.233 8.121,7.233c3.527,-0 5.874,-1.178 8.379,-4.74c0.161,-0.227 0.471,-0.322 0.721,-0.198l6.73,3.332c0.29,0.144 0.417,0.506 0.27,0.793c-2.861,5.664 -8.629,9.177 -15.873,9.177c-13.07,0 -19.269,-8.29 -19.269,-19.418c0,-11.056 6.946,-19.495 18.895,-19.495c10.827,-0 17.477,7.62 17.477,19.421c0,1.045 -0.075,2.091 -0.224,3.211" style="fill:#fff;fill-rule:nonzero;"/><path d="M94.247,68.421c2.539,-3.217 0.279,-7.948 -3.82,-8.006l-14.503,-0.186l-2.663,-0.032l-7.678,-0.098c-1.629,-0.02 -3.143,-0.841 -4.048,-2.194l-13.819,-20.648c-2.284,-3.407 -7.48,-2.72 -8.793,1.161l-7.983,23.531c-0.526,1.543 -1.769,2.729 -3.335,3.172l-23.908,6.761c-3.946,1.121 -4.9,6.274 -1.617,8.724l19.912,14.859c1.307,0.974 2.054,2.528 1.985,4.154l-0.81,21.176l-0.141,3.654c-0.048,1.244 0.377,2.31 1.037,3.166c1.52,1.967 4.424,2.708 6.759,1.065l20.286,-14.348c1.327,-0.942 3.033,-1.169 4.564,-0.603l23.316,8.583c3.847,1.41 7.647,-2.2 6.432,-6.11l-7.374,-23.73c-0.485,-1.554 -0.172,-3.246 0.833,-4.527l15.368,-19.524Z" style="fill:#fff;fill-rule:nonzero;"/><clipPath id="_clip1"><path d="M94.247,68.421c2.539,-3.217 0.279,-7.948 -3.82,-8.006l-14.503,-0.186l-2.663,-0.032l-7.678,-0.098c-1.629,-0.02 -3.143,-0.841 -4.048,-2.194l-13.819,-20.648c-2.284,-3.407 -7.48,-2.72 -8.793,1.161l-7.983,23.531c-0.526,1.543 -1.769,2.729 -3.335,3.172l-23.908,6.761c-3.946,1.121 -4.9,6.274 -1.617,8.724l19.912,14.859c1.307,0.974 2.054,2.528 1.985,4.154l-0.81,21.176l-0.141,3.654c-0.048,1.244 0.377,2.31 1.037,3.166c1.52,1.967 4.424,2.708 6.759,1.065l20.286,-14.348c1.327,-0.942 3.033,-1.169 4.564,-0.603l23.316,8.583c3.847,1.41 7.647,-2.2 6.432,-6.11l-7.374,-23.73c-0.485,-1.554 -0.172,-3.246 0.833,-4.527l15.368,-19.524Z" clip-rule="nonzero"/></clipPath><g clip-path="url(#_clip1)"><path d="M30.793,128.797l20.335,-14.377c1.334,-0.946 3.041,-1.172 4.575,-0.605l23.371,8.6c3.861,1.418 7.664,-2.201 6.451,-6.12l-7.391,-23.791c-0.489,-1.555 -0.174,-3.252 0.835,-4.534l15.402,-19.573c2.548,-3.225 0.278,-7.969 -3.829,-8.021l-14.541,-0.189l-51.979,67.544c1.523,1.97 4.439,2.716 6.771,1.066" style="fill:#fff;fill-rule:nonzero;"/></g></svg>