<?xml version="1.0" encoding="UTF-8"?><svg xmlns="http://www.w3.org/2000/svg" width="1920" height="368" viewBox="0 0 1920 368"><g id="uuid-493033c1-ed5c-40e2-94cc-7f35668e1d45"><rect width="1920" height="368" style="fill:#10175c;"/></g><g id="uuid-bbf74613-c51f-4d7b-9a61-1bd616d50ce7"><path d="m1035.39,67.44l-3.92-4.45-9.79,8.9-9.78-8.9-3.92,4.45h-.11l13.7,14.43,13.82-14.43Zm-360.39,25.06c-1.63-1.74-3.7-3.15-6.31-4.13-2.61-.97-5.77-1.4-9.58-1.4l.11-.11c-3.37,0-6.41.21-9.24.76-2.83.43-4.9.98-6.09,1.52l1.08,7.81c1.2-.54,2.94-.98,5.23-1.41,2.28-.43,5-.65,8.15-.65,2.39,0,4.35.32,5.88,1.08,1.52.65,2.72,1.62,3.59,2.82.87,1.19,1.52,2.49,1.84,4.01.33,1.52.55,3.04.55,4.56v2.61c-.22-.11-.76-.22-1.42-.33-.65-.1-1.52-.21-2.39-.43-.97-.21-1.95-.43-2.93-.43-.98-.1-1.96-.1-2.94-.1-2.94,0-5.77.21-8.48.87-2.72.65-5.01,1.51-7.08,2.82-1.95,1.3-3.59,3.03-4.79,5.1-1.19,2.06-1.74,4.45-1.74,7.48s.54,5.64,1.52,7.81c.97,2.17,2.39,3.91,4.24,5.21,1.85,1.41,4.03,2.28,6.53,2.93,2.5.54,5.22.87,8.16.87,2.06,0,4.13,0,6.31-.21,2.06-.11,4.03-.33,5.88-.54,1.84-.22,3.48-.43,4.89-.65,1.42-.22,2.61-.43,3.37-.54v-32.76c0-2.92-.32-5.64-.98-8.13-.65-2.5-1.74-4.67-3.37-6.4Zm-4.9,40.78c-1.2.22-2.61.54-4.35.54-1.63.11-3.7.11-5.87.11l.1.11c-3.7,0-6.63-.65-8.81-1.95-2.18-1.3-3.26-3.69-3.26-7.05,0-1.73.43-3.25,1.3-4.34.87-1.09,1.96-1.95,3.26-2.61,1.3-.65,2.72-1.08,4.35-1.3,1.52-.32,3.05-.32,4.46-.32,2.17,0,4.03.1,5.55.32,1.52.22,2.61.54,3.26.87v15.62Zm-44.71-1.62c-.54-.54-1.09-1.41-1.31-2.39-.32-.98-.43-2.28-.43-3.8v-63.02l-9.35,1.62v63.03c0,4.99,1.19,8.57,3.59,10.95,2.39,2.28,6.53,3.58,12.3,3.69l1.3-7.92c-1.41-.21-2.72-.43-3.7-.76-.98-.33-1.74-.76-2.39-1.41Zm-124.12-18.01c0,3.47-.44,6.51-1.2,9-.87,2.5-1.95,4.56-3.48,6.19-1.52,1.62-3.26,2.82-5.33,3.58-2.07.76-4.35,1.2-6.86,1.2-5.01,0-9.03-1.63-12.19-4.78-3.15-3.14-4.68-8.24-4.68-15.19v-42.74h-9.79v43.93c0,3.91.43,7.49,1.52,10.85.97,3.36,2.61,6.18,4.79,8.68,2.17,2.39,4.89,4.34,8.26,5.75,3.37,1.42,7.4,2.17,11.97,2.17h.22c4.57,0,8.48-.76,11.86-2.17,3.26-1.4,6.09-3.25,8.27-5.75,2.28-2.39,3.81-5.31,4.89-8.68.98-3.36,1.53-6.94,1.53-10.85v-43.93h-9.79v42.74Zm55.91-10.2l22.08-32.55h-11.21l-17.08,26.04-17.29-26.04h-11.31l22.41,32.98c-4.57,6.51-8.81,12.8-12.84,18.87-4.03,6.08-7.5,12.04-10.55,18.01h10.88c.98-2.06,2.28-4.23,3.7-6.72,1.52-2.5,3.04-5.1,4.68-7.71,1.63-2.6,3.37-5.31,5.23-7.91,1.74-2.61,3.48-5.11,5.22-7.49,1.63,2.28,3.37,4.88,5.23,7.49,1.74,2.6,3.48,5.31,5.22,7.91,1.74,2.72,3.26,5.21,4.68,7.71,1.52,2.49,2.72,4.67,3.7,6.72h10.99c-3.15-5.97-6.75-12.04-10.77-18.23-4.03-6.18-8.37-12.58-12.94-19.09Zm236.81-8.79c-2.17-2.5-4.79-4.34-7.83-5.64-3.04-1.3-6.31-1.95-9.9-1.95s-6.85.65-9.9,1.95c-3.04,1.3-5.66,3.25-7.83,5.64-2.18,2.39-3.92,5.31-5.12,8.68-1.2,3.47-1.85,7.16-1.85,11.28s.65,7.91,1.85,11.28c1.19,3.36,2.94,6.3,5.12,8.68,2.17,2.49,4.79,4.34,7.83,5.64,3.04,1.31,6.31,1.95,9.9,1.95s6.86-.65,9.9-1.95c3.04-1.3,5.66-3.25,7.83-5.64,2.17-2.39,3.92-5.32,5.12-8.68,1.19-3.36,1.84-7.16,1.84-11.28s-.65-7.92-1.84-11.28c-1.2-3.36-2.94-6.29-5.12-8.68Zm-6.85,34.06c-2.72,3.47-6.31,5.21-10.88,5.21s-8.26-1.73-10.88-5.21c-2.72-3.47-4.03-8.13-4.03-14.1s1.3-10.63,4.03-14.11c2.72-3.47,6.31-5.2,10.88-5.2s8.27,1.73,10.88,5.2c2.72,3.47,4.03,8.14,4.03,14.11s-1.42,10.63-4.03,14.1Zm52.43-40.89c-.98-.22-1.96-.43-3.04-.43-1.09-.11-2.07-.11-2.83-.11v-.11c-4.13,0-7.83.32-11.1,1.09-3.26.76-6.09,1.51-8.27,2.28v50.22h9.36v-44.04c.54-.1,1.63-.43,3.37-.76,1.74-.32,3.48-.54,5.22-.54,2.72,0,4.9.22,6.64.54,1.74.43,2.93.65,3.7.98l1.63-8.13c-.44-.11-.98-.22-1.85-.44-.87-.21-1.84-.32-2.83-.54Zm92.03,45.01c-1.74.65-4.03.98-6.85.98-1.63,0-3.04-.21-4.24-.65-1.19-.43-2.28-1.08-3.04-2.06-.87-.98-1.41-2.28-1.85-4.01-.43-1.74-.65-3.91-.65-6.51v-24.19h19.91v-7.92h-19.91l.11-.11v-16.27l-9.35,1.62v46.86c0,3.47.32,6.61.87,9.22.54,2.71,1.52,4.88,2.94,6.72,1.41,1.84,3.37,3.25,5.66,4.12,2.28.98,5.22,1.41,8.81,1.41,2.93,0,5.66-.32,8.05-1.08,2.39-.65,4.02-1.31,5-1.73l-1.84-7.82c-.65.33-1.85.76-3.59,1.41Zm103.12-44.37c-.86-.21-1.85-.32-2.83-.54-.97-.22-1.96-.44-3.04-.44-1.08-.1-2.07-.1-2.83-.1v-.11c-4.14,0-7.83.32-11.1,1.08-3.26.76-6.1,1.52-8.27,2.28v50.22h9.35v-44.04c.55-.11,1.63-.43,3.37-.76s3.48-.54,5.22-.54c2.72,0,4.9.22,6.62.54,1.74.43,2.95.65,3.7.98l1.63-8.14c-.44-.1-.97-.21-1.85-.43Zm-148.48,4.23c-1.63-1.73-3.7-3.14-6.31-4.12s-5.77-1.41-9.57-1.41l.11-.11c-3.37,0-6.42.22-9.24.76-2.83.43-4.9.98-6.1,1.51l1.09,7.82c1.19-.54,2.93-.98,5.22-1.41,2.28-.43,5.01-.65,8.16-.65,2.39,0,4.35.32,5.88,1.09,1.52.65,2.72,1.62,3.59,2.82.87,1.19,1.52,2.49,1.85,4.01.32,1.51.54,3.03.54,4.56v2.6c-.22-.1-.76-.21-1.41-.32s-1.52-.22-2.39-.43c-.98-.22-1.96-.43-2.94-.43-.98-.11-1.96-.11-2.94-.11-2.93,0-5.76.22-8.48.87-2.72.65-5.01,1.52-7.07,2.82-1.96,1.3-3.59,3.03-4.79,5.1-1.2,2.06-1.74,4.45-1.74,7.49s.54,5.64,1.52,7.81c.98,2.17,2.39,3.91,4.24,5.21,1.85,1.41,4.03,2.28,6.53,2.92,2.5.54,5.22.87,8.15.87,2.07,0,4.13,0,6.31-.22,2.07-.11,4.03-.32,5.88-.54,1.85-.21,3.48-.43,4.9-.65,1.41-.22,2.61-.44,3.37-.54v-32.76c0-2.93-.33-5.64-.98-8.14-.65-2.49-1.74-4.67-3.37-6.4Zm-4.9,40.79c-1.19.21-2.61.54-4.35.54-1.63.1-3.7.1-5.88.1l.11.11c-3.7,0-6.64-.65-8.81-1.95-2.17-1.3-3.26-3.69-3.26-7.05,0-1.74.44-3.25,1.31-4.34.86-1.09,1.95-1.95,3.26-2.6,1.31-.65,2.72-1.09,4.35-1.3,1.52-.33,3.04-.33,4.46-.33,2.18,0,4.03.11,5.55.33,1.52.21,2.61.54,3.26.87v15.62Zm104.98-38.72c-2.18-2.5-4.79-4.34-7.84-5.64-3.04-1.3-6.31-1.95-9.88-1.95s-6.86.65-9.91,1.95c-3.04,1.3-5.66,3.25-7.83,5.64-2.17,2.39-3.92,5.31-5.12,8.68-1.19,3.47-1.84,7.16-1.84,11.28s.65,7.91,1.84,11.28c1.2,3.36,2.94,6.29,5.12,8.68,2.17,2.5,4.79,4.34,7.83,5.64,3.05,1.3,6.32,1.95,9.91,1.95s6.84-.65,9.88-1.95c3.06-1.3,5.66-3.25,7.84-5.64,2.17-2.39,3.91-5.31,5.1-8.68,1.21-3.36,1.85-7.16,1.85-11.28s-.65-7.92-1.85-11.28c-1.19-3.36-2.93-6.29-5.1-8.68Zm-6.86,34.06c-2.72,3.47-6.31,5.21-10.87,5.21s-8.27-1.74-10.89-5.21c-2.72-3.47-4.03-8.13-4.03-14.1s1.31-10.63,4.03-14.11c2.73-3.47,6.3-5.21,10.89-5.21s8.25,1.74,10.87,5.21c2.72,3.47,4.02,8.13,4.02,14.11s-1.41,10.62-4.02,14.1Zm-244.32-33.95c-1.96-2.39-4.46-4.34-7.4-5.64-2.93-1.41-6.31-2.06-10.11-2.06-3.04,0-5.77.43-8.05,1.19-2.28.76-4.03,1.52-5.22,2.28v-28.2l-9.36,1.62v75.39c2.18.65,4.9,1.19,8.27,1.84,3.37.54,7.29.87,11.64.87,4.02,0,7.61-.65,10.88-1.95,3.15-1.3,5.98-3.03,8.26-5.42,2.29-2.39,4.13-5.32,5.33-8.68,1.19-3.47,1.84-7.27,1.84-11.5s-.43-7.71-1.52-11.06c-.97-3.36-2.5-6.3-4.57-8.68Zm-8.16,33.84c-3.04,3.36-7.07,4.99-12.18,4.99-2.61,0-4.68-.1-6.42-.32-1.74-.22-3.05-.54-4.03-.76h.11v-33.19c1.19-.98,2.83-1.85,5-2.72,2.18-.87,4.35-1.3,7.07-1.3s5.01.43,6.97,1.41c1.84.98,3.48,2.28,4.68,4.02,1.19,1.73,2.06,3.68,2.61,6.07.55,2.39.77,4.89.77,7.6,0,6.19-1.53,10.84-4.57,14.21ZM197.23,77.74c-3.37-5.97-6.2-7.7-14.36-7.7h-12.62c-9.14,0-13.49,5.86-13.49,17.9v8.35c0,13.34,5.22,28.31,16.75,35.26,25.24,14.97,42.1,41.98,42.1,72.78,0,50.88-43.95,86.02-90.72,85.48-46.77.65-90.72-34.6-90.72-85.48,0-30.7,16.86-57.71,42.1-72.78,11.53-6.83,16.75-21.92,16.75-35.26v-8.35c0-13.34-5.01-17.9-16.86-17.9H30.8C3.82,70.04.02,70.15.02,91.85v98.71C.02,264.11,47.12,321.82,124.68,321.82h.22c81.04,0,113.02-59.44,138.7-112.16,2.72-4.78,2.28-10.95-.11-15.3l-66.25-116.61Z" style="fill:#11dc92; fill-rule:evenodd;"/><path d="m840.56,290.68h-61.78c18.49-26.68,40.14-50.66,61.78-74.74.33-.32.44-1.08.44-1.08v-22.67c0-.87-.76-1.62-1.63-1.62h-101.17c-.87,0-1.63.76-1.63,1.62v27.66c0,.87.76,1.62,1.63,1.62h54.28c-10.55,12.47-20.89,25.17-30.89,38.08-9.9,12.69-19.69,25.82-27.85,39.7-.22.32-.22.87-.22.87v19.85c0,.87.76,1.62,1.63,1.62h105.4c.87,0,1.63-.76,1.63-1.62v-27.66c0-.87-.76-1.63-1.63-1.63Zm582.63-102.94c-18.49-2.17-38.29,0-56.13,5.1-.86.32-1.41,1.09-1.19,1.95l4.24,26.47-.21-.22c.21,1.09,1.19,1.52,2.17,1.3,12.62-4.12,30.79-6.62,43.74-3.47,9.9,2.39,14.91,10.09,14.91,19.85v3.47c-6.97-2.06-15.02-2.28-21.98-2.28s-13.92.76-20.78,2.17c-15.55,3.36-30.02,12.37-33.72,29.07-.65,3.25-.97,6.62-.97,9.98,0,6.83.97,14,4.02,20.17,5.66,11.72,17.09,18.01,29.38,20.72,13.17,2.82,26.98,2.61,40.36,1.73,9.46-.54,18.48-2.06,27.74-3.69,3.58-.65,7.06-1.3,10.44-2.06.77-.22,1.3-.87,1.3-1.62v-75.94c0-13.67-2.28-28.75-12.07-39.05-8.05-8.46-19.8-12.26-31.22-13.67Zm7.62,106.95c-1.21.11-2.62.33-3.92.44v.1c-9.9.76-29.8,3.04-35.03-7.48-1.08-2.17-1.52-4.78-1.52-7.49,0-11.5,10.99-14.54,20.56-15.08,6.53-.43,13.49-.1,19.91,1.3v28.2Zm360.48-4.77l-.11.1c-.11-.86-.97-1.4-1.85-1.3h-.32c-12.62,4.77-28.71,6.62-41.66,2.5-15.24-4.89-19.36-20.61-19.36-35.15,0-9.54,2.07-19.31,8.16-26.9,11.31-14.21,33.39-11.17,48.39-5.86.88.32,1.85-.11,2.18-.98v-.21l6.86-26.36c.22-.87-.22-1.63-.99-1.95-8.05-3.25-16.53-5.53-25.23-6.29-12.84-1.09-26.09-.11-38.07,5.1-25.45,11.17-39.17,35.57-39.17,63.45s10.56,52.61,37.43,63.67c19.69,8.14,47.42,7.05,67.44-.87.75-.32,1.19-1.19.97-1.95l-4.68-27.01Zm-134.55-10.95c-13.39,0-23.29,9.65-23.29,22.89s9.9,22.89,23.29,22.89,23.27-9.55,23.27-22.89-9.9-22.89-23.27-22.89Zm-352.01-87.11c-8.16-3.47-17.2-4.34-25.89-4.34-9.79,0-20.02,2.71-28.83,7.05-.55.33-8.6,5.1-8.6,5.1-2.07-1.84-4.46-3.47-6.97-4.88-14.14-8.03-29.8-7.92-45.46-6.62-12.84,1.09-25.45,3.36-37.96,6.51-.66.22-1.21.87-1.21,1.63v123.66c0,.87.77,1.62,1.63,1.62h33.94c.88,0,1.63-.76,1.63-1.62v-99.47c2.51-.32,4.9-.65,7.3-.87,5.65-.54,11.85-.98,16.97,1.52,6.86,3.25,9.02,10.74,10.01,17.68.65,4.56.75,9.32.75,13.23v67.91c0,.87.77,1.62,1.63,1.62h33.94c.86,0,1.63-.76,1.63-1.62v-69.86c0-6.51-.11-13.34-1.3-19.74-.11-.54-1.41-5.97-1.41-5.97,3.8-2.5,8.59-3.91,13.06-4.78,4.57-.87,9.57-.65,13.8,1.41,6.86,3.25,9.02,10.74,10.01,17.68.65,4.56.75,9.33.75,13.23v67.91c0,.87.77,1.62,1.63,1.62h33.94c.86,0,1.63-.76,1.63-1.62v-72.35c0-11.39-.88-23.97-5.44-34.6-4.24-9.65-11.52-16.82-21.2-21.05Zm-188.19-1.29h-33.94c-.86,0-1.63.76-1.63,1.62v99.47c-5.43.76-10.99,1.2-16.53,1.2-3.59,0-7.08-.54-10.23-1.74-11.86-4.78-12.18-21.47-12.18-32.22v-66.82c0-.87-.77-1.62-1.63-1.62h-33.94c-.88,0-1.63.76-1.63,1.62v71.37c0,18.55,3.59,39.92,20.01,51.42,10.89,7.7,24.37,9.65,37.43,9.65,18.17,0,37.21-2.28,54.72-7.16.75-.1,1.19-.76,1.19-1.51v-123.66c0-.87-.75-1.62-1.63-1.62Zm-397.7,0h-35.03l-.11-.11c-.87,0-1.52.65-1.63,1.41-6.42,24.84-13.17,49.69-21.43,73.98-5.01,14.64-2.83,14.32-8.16,0-9.03-24.19-16.86-49.14-23.39-74.09-.21-.65-.87-1.19-1.63-1.19h-36c-1.2,0-1.96,1.09-1.52,2.17,3.37,11.39,6.96,22.78,10.77,33.96,10.55,30.59,23.39,60.63,38.07,89.38,0,1.63-2.93,6.4-3.81,7.92-2.72,4.89-6.85,9.33-12.3,11.06-8.48,2.71-18.17.98-26.43-1.73-.87-.32-1.85.21-2.07,1.19l-5.76,26.47c-.22.87.32,1.73,1.08,1.95,8.38,3.25,17.73,4.66,26.76,4.66,17.95,0,34.37-7.27,44.05-22.89,10.33-15.4,17.3-33.52,24.37-50.55,4.57-10.85,8.81-21.7,12.83-32.66,4.24-11.39,8.16-22.78,11.97-34.27,3.81-11.5,7.4-23,10.88-34.61.32-.97-.33-2.06-1.52-2.06Zm-139.46,0h-35.03c-.87,0-1.52.65-1.63,1.41-6.64,25.38-14.68,50.44-23.38,75.17-4.24,12.37-2.72,12.69-7.18,0-8.81-24.62-16.75-50.01-23.28-75.28-.22-.65-.87-1.19-1.63-1.19h-36.01c-1.09,0-1.85,1.08-1.52,2.17,7.18,23.76,15.12,47.4,24.25,70.51,7.62,19.42,15.89,38.73,25.35,57.39.21.54.87.87,1.41.87h28.93l.12-.1c.65,0,1.3-.44,1.52-.98,9.47-18.66,17.73-37.86,25.35-57.28,9.13-23.22,17.07-46.75,24.25-70.62.33-.97-.43-2.06-1.52-2.06Zm1338.97,100.12h-61.78c18.49-26.68,40.14-50.66,61.78-74.74.33-.32.44-1.08.44-1.08v-22.67c0-.87-.77-1.62-1.63-1.62h-101.17c-.86,0-1.63.76-1.63,1.62v27.66c0,.87.77,1.63,1.63,1.63h54.28c-10.55,12.47-20.89,25.16-30.9,38.07-9.89,12.69-19.68,25.82-27.84,39.7-.22.32-.22.87-.22.87v19.85c0,.87.75,1.62,1.63,1.62h105.4c.86,0,1.63-.76,1.63-1.62v-27.66c0-.87-.77-1.63-1.63-1.63Zm-983.48-36.01c9.03-7.27,52.1-62.59,50.91-63.67l-1.08-.43h-39.81c-.55,0-.98.32-1.31.76-13.27,15.84-26.98,37.86-40.9,53.15v-52.29c0-1.08-.98-1.62-2.07-1.62h-33.83c-.87.11-1.41.87-1.41,1.62v127.79c0,.87.76,1.62,1.63,1.62h33.94c.87,0,1.63-.76,1.63-1.62v-49.14c16.53,13.24,30.35,27.56,44.27,50.01.33.43.87.76,1.41.76h39.05c1.41,0,2.07-1.41,1.41-2.49-14.8-26.04-30.89-45.45-53.84-64.44Zm632.99,0c9.02-7.27,52.11-62.59,50.9-63.67l-1.08-.43h-39.81c-.55,0-.99.32-1.3.76-13.28,15.84-26.98,37.86-40.91,53.15v-52.29c0-1.08-.97-1.62-2.07-1.62h-33.82c-.88.11-1.41.87-1.41,1.62v127.79c0,.87.75,1.62,1.63,1.62h33.93c.88,0,1.63-.76,1.63-1.62v-49.14c16.54,13.24,30.35,27.56,44.28,50.01.32.43.86.76,1.41.76h39.04c1.32,0,2.07-1.41,1.41-2.49-14.79-26.04-30.88-45.45-53.84-64.44ZM179.72,179.72c-9.46-24.52-52.76,13.89-93.99,5.1-9.79-2.06-19.37-14.75-24.15,7.05-.97,4.01-1.41,8.24-1.41,12.58,0,33.3,27.96,60.31,62.55,60.31s62.55-27.01,62.55-60.31c0-8.89-1.96-17.24-5.55-24.84v.11ZM101.18,46.18c8.81,0,15.99-7.05,15.99-15.62s-7.18-15.62-15.99-15.62-15.99,7.05-15.99,15.62,7.18,15.62,15.99,15.62Zm7.73,32.43c0,8.68,7.18,15.62,15.98,15.62s15.99-7.05,15.99-15.62-7.18-15.62-15.99-15.62-15.98,7.05-15.98,15.62Zm41.01-46.97c8.81,0,15.99-7.05,15.99-15.62S158.72.41,149.91.41s-15.99,7.05-15.99,15.62,7.18,15.62,15.99,15.62Zm138.92,207.62l.11.11c-5.99-10.31-7.07-9.76-12.73,0-3.48,5.97-6.86,11.93-10.33,17.9-9.68,16.82-9.46,15.52.21,32.33,8.38,14.42-6.31-10.95,2.07,3.47,15.88,27.66,18.93,28.86,38.4,28.86,27.95,0,29.91-.43,13.7-28.42l-31.43-54.24Zm24.8-169.11c-19.15,0-26.43,2.39-33.51,14.75-10.11,17.57-6.74,11.39-16.53,28.31h.11c-9.79,16.92-9.79,15.94,0,32.98l9.14,15.83c7.18,12.58,8.15,11.39,14.68,0,19.36-33.74,24.37-42.52,43.73-76.26,9.03-15.83,3.92-15.62-17.62-15.62Z" style="fill:#fff; fill-rule:evenodd;"/></g></svg>