<?xml version="1.0" encoding="UTF-8" standalone="no"?><!DOCTYPE svg PUBLIC "-//W3C//DTD SVG 1.1//EN" "http://www.w3.org/Graphics/SVG/1.1/DTD/svg11.dtd"><svg width="100%" height="100%" viewBox="0 0 180 35" version="1.1" xmlns="http://www.w3.org/2000/svg" xmlns:xlink="http://www.w3.org/1999/xlink" xml:space="preserve" xmlns:serif="http://www.serif.com/" style="fill-rule:evenodd;clip-rule:evenodd;stroke-linejoin:round;stroke-miterlimit:2;"><path d="M176.15,17.826l-4.699,0c0.13,-1.578 1.109,-2.762 2.545,-2.762c1.436,0 2.154,0.986 2.154,2.236c0.065,0.169 0.065,0.357 0,0.526Zm-2.023,8.75c2.675,0 5.155,-0.987 5.873,-3.816l-3.393,-1.184c-0.457,1.447 -1.306,1.908 -2.415,1.908c-1.828,0 -2.807,-1.382 -2.872,-3.487l8.419,0c0.13,-0.583 0.196,-1.179 0.196,-1.776c0,-3.552 -1.893,-6.118 -5.743,-6.118c-4.112,0 -6.657,2.697 -6.657,7.434c0,4.473 2.676,7.039 6.592,7.039Zm-14.489,-2.83c-1.175,0 -2.611,-0.788 -2.611,-3.157l0,-2.039c0,-2.105 1.436,-3.223 2.872,-3.223c1.762,0 2.872,1.184 2.872,4.078c-0.066,2.895 -1.436,4.342 -3.133,4.342l0,-0.001Zm1.24,2.83c3.72,0 5.808,-3.027 5.808,-7.566c0,-4.407 -1.892,-6.907 -5.286,-6.907c-1.958,0 -3.655,0.79 -4.438,2.895l0,-8.684l-3.981,0l0,19.933l2.806,0l0.979,-1.974c0.522,1.25 1.828,2.303 4.112,2.303Zm-15.794,-3.092c-1.893,0 -2.741,-1.316 -2.741,-4.21c-0,-2.697 0.913,-4.013 2.741,-4.013c1.827,0 2.676,1.316 2.676,4.013c-0,2.894 -0.849,4.21 -2.676,4.21Zm-0,3.091c3.981,0 6.592,-2.63 6.592,-7.301c-0,-4.67 -2.611,-7.17 -6.592,-7.17c-3.981,0 -6.657,2.5 -6.657,7.17c0.065,4.67 2.676,7.302 6.657,7.302l-0,-0.001Zm-10.443,-0.065c0.784,0 1.502,-0.132 2.285,-0.33l0.196,-3.354c-0.333,0.129 -0.688,0.195 -1.045,0.197c-0.718,0 -1.24,-0.329 -1.24,-1.184l-0,-15.525l-3.981,0l-0,16.71c-0,2.565 1.828,3.486 3.785,3.486Zm-12.139,3.355c-2.088,0 -3.198,-0.527 -3.198,-1.58c-0,-0.788 0.783,-1.183 1.893,-1.183l3.394,0c1.174,0 1.697,0.329 1.697,1.184c-0,1.052 -1.045,1.579 -3.786,1.579Zm0.065,-10.789c-1.37,-0 -2.088,-0.92 -2.088,-2.105c-0,-1.381 0.653,-2.105 2.088,-2.17c1.371,-0 2.089,0.657 2.089,2.17c0.065,1.382 -0.718,2.105 -2.089,2.105Zm-0.522,13.42c3.916,-0 7.963,-0.987 7.963,-4.934c-0,-2.368 -1.762,-4.078 -4.83,-4.078l-3.916,-0c-0.718,-0 -1.109,-0.33 -1.109,-0.855c-0,-0.46 0.195,-0.856 0.652,-1.119c0.327,0.132 0.979,0.198 1.632,0.198c3.524,-0 6.265,-1.58 6.265,-4.737c-0,-0.986 -0.195,-1.776 -0.652,-2.434c1.109,-0.329 2.349,-1.25 2.48,-2.565l-3.133,-1.053c-0.326,1.119 -0.457,1.513 -1.044,2.105c-0.979,-0.592 -2.35,-0.855 -3.851,-0.855c-3.655,-0 -6.069,1.645 -6.069,4.868c-0,2.237 0.979,3.42 2.871,4.144c-1.566,0.46 -2.284,1.645 -2.284,2.697c-0,1.25 0.848,2.369 2.219,2.434c-2.48,0.198 -3.59,1.184 -3.59,2.763c-0,2.632 3.068,3.421 6.396,3.421Zm-13.509,-8.75c-1.175,-0 -2.611,-0.788 -2.611,-3.157l-0,-2.039c-0,-2.105 1.436,-3.223 2.872,-3.223c1.762,-0 2.871,1.184 2.871,4.078c-0,2.895 -1.436,4.342 -3.132,4.342l-0,-0.001Zm1.305,2.83c3.72,-0 5.808,-3.027 5.808,-7.566c-0,-4.407 -1.892,-6.907 -5.286,-6.907c-1.958,-0 -3.655,0.79 -4.438,2.895l-0,-8.684l-3.981,-0l-0,19.933l2.806,-0l0.979,-1.974c0.457,1.25 1.762,2.303 4.112,2.303Zm-12.922,-8.75l-4.7,-0c0.13,-1.578 1.11,-2.762 2.546,-2.762c1.436,-0 2.153,0.986 2.153,2.236l-0,0.526l0.001,-0Zm-2.089,8.75c2.676,-0 5.156,-0.987 5.874,-3.816l-3.394,-1.184c-0.457,1.447 -1.305,1.908 -2.415,1.908c-1.827,-0 -2.806,-1.382 -2.871,-3.487l8.484,-0c0.13,-0.583 0.196,-1.179 0.196,-1.776c-0,-3.552 -1.893,-6.118 -5.743,-6.118c-4.112,-0 -6.657,2.697 -6.657,7.434c-0.066,4.473 2.61,7.039 6.526,7.039Zm-21.015,-0.33l2.088,-8.683c0.588,-2.5 0.718,-4.933 0.718,-4.933l0.13,-0c-0,-0 0.131,2.434 0.653,4.933l1.958,8.684l5.874,-0l3.85,-17.564l-4.111,-0l-1.958,9.67c-0.522,2.434 -0.718,4.933 -0.718,4.933l-0.13,-0c-0,-0 -0.327,-2.5 -0.849,-5l-2.153,-9.67l-4.765,-0l-2.154,9.67c-0.522,2.435 -0.783,4.935 -0.783,4.935l-0.13,-0c-0,-0 -0.261,-2.5 -0.783,-5l-2.024,-9.67l-4.242,-0l3.85,17.564l5.679,-0l-0,0.132l0,-0.001Z" style="fill:#fff;fill-rule:nonzero;"/><path d="M46.208,3.157l-11.423,23.616c-1.37,2.763 -0.196,6.184 2.545,7.5c2.742,1.38 6.135,0.197 7.44,-2.566l11.424,-23.617c1.37,-2.763 0.196,-6.184 -2.545,-7.5c-2.742,-1.38 -6.07,-0.197 -7.44,2.566l-0.001,0.001Zm-12.662,23.221l5.547,-11.512l-5.678,-11.709c-1.37,-2.763 -4.699,-3.947 -7.44,-2.565c-2.741,1.381 -3.916,4.736 -2.545,7.499l9.659,19.932c0,-0.526 0.196,-1.118 0.457,-1.645Zm-11.421,-17.893c-0.261,-0.526 -0.392,-1.052 -0.522,-1.644l-9.66,19.932c-1.37,2.763 -0.195,6.184 2.546,7.5l0.13,0.065c2.741,1.25 6.005,0.066 7.31,-2.697l5.678,-11.71l-5.482,-11.446Zm-11.422,17.828l5.548,-11.446l-5.613,-11.644c-1.37,-2.763 -4.698,-3.947 -7.44,-2.566c-2.806,1.316 -3.981,4.671 -2.61,7.5l9.659,19.932c0.059,-0.612 0.213,-1.211 0.456,-1.776Z" style="fill:#fff;"/></svg>