<?xml version="1.0" encoding="UTF-8" standalone="no"?>
<!DOCTYPE svg PUBLIC "-//W3C//DTD SVG 1.1//EN" "http://www.w3.org/Graphics/SVG/1.1/DTD/svg11.dtd">
<svg width="100%" height="100%" viewBox="0 0 388 241" version="1.1" xmlns="http://www.w3.org/2000/svg" xmlns:xlink="http://www.w3.org/1999/xlink" xml:space="preserve" xmlns:serif="http://www.serif.com/" style="fill-rule:evenodd;clip-rule:evenodd;stroke-linejoin:round;stroke-miterlimit:2;">
    <g transform="matrix(1,0,0,1,-149.999,-1790.01)">
        <g transform="matrix(0.999828,0,0,1.6106,0.279376,1102.99)">
            <g id="Image" transform="matrix(1.00029,0,0,0.622264,-0.0792135,-0.946394)">
                <g transform="matrix(0.896157,0,0,0.522958,15.5537,586.603)">
                    <rect x="149.781" y="192.013" width="431.833" height="457.912" style="fill:rgb(229,229,229);"/>
                </g>
                <g transform="matrix(0.999883,0,0,0.997786,-371.667,-236.475)">
                    <g transform="matrix(0.114713,0,0,0.117253,406.752,975.541)">
                        <rect x="2270.35" y="0" width="834" height="1194" style="fill:rgb(79,84,255);"/>
                    </g>
                    <g transform="matrix(2.05948,0,0,1.44121,-939.442,-389.849)">
                        <rect x="792.515" y="992.577" width="21.656" height="17.349" style="fill:white;"/>
                    </g>
                    <g transform="matrix(0.406355,0,0,0.505052,370.685,524.116)">
                        <rect x="792.515" y="992.577" width="21.656" height="17.349" style="fill:white;"/>
                    </g>
                    <g transform="matrix(1.10006,0,0,0.505052,-163.806,524.116)">
                        <rect x="792.515" y="992.577" width="21.656" height="17.349" style="fill:white;"/>
                    </g>
                </g>
            </g>
        </g>
    </g>
</svg>
