<?xml version="1.0" standalone="no"?>
<!DOCTYPE svg PUBLIC "-//W3C//DTD SVG 20010904//EN"
 "http://www.w3.org/TR/2001/REC-SVG-20010904/DTD/svg10.dtd">
<svg version="1.0" xmlns="http://www.w3.org/2000/svg"
 width="700.000000pt" height="700.000000pt" viewBox="0 0 700.000000 700.000000"
 preserveAspectRatio="xMidYMid meet">
<metadata>
Created by potrace 1.14, written by Peter Selinger 2001-2017
</metadata>
<g transform="translate(0.000000,700.000000) scale(0.100000,-0.100000)"
fill="#000000" stroke="none">
<path d="M0 3500 l0 -3500 3500 0 3500 0 0 3500 0 3500 -3500 0 -3500 0 0
-3500z m2815 893 c286 -76 477 -226 601 -473 105 -210 122 -525 42 -767 -95
-287 -315 -484 -636 -571 -96 -26 -101 -26 -524 -30 l-428 -4 0 937 0 936 433
-4 c400 -3 438 -5 512 -24z m1840 -357 c229 -62 405 -225 479 -447 32 -97 48
-224 40 -326 l-7 -83 -545 0 -545 0 7 -47 c14 -108 92 -214 191 -263 44 -22
63 -25 160 -25 100 0 115 2 161 27 52 27 107 81 126 124 l11 24 198 0 c109 0
200 -4 203 -8 3 -5 -16 -51 -41 -103 -89 -183 -268 -324 -463 -365 -110 -24
-294 -21 -394 5 -211 56 -364 178 -456 366 -58 116 -72 180 -77 342 -6 158 9
257 54 370 86 215 274 369 512 419 86 17 303 12 386 -10z"/>
<path d="M2240 3491 l0 -621 179 0 c118 0 206 5 257 15 224 43 378 190 430
411 22 92 21 285 0 378 -34 145 -126 276 -241 345 -106 64 -193 82 -422 88
l-203 6 0 -622z"/>
<path d="M4313 3732 c-74 -26 -127 -66 -167 -125 -29 -44 -66 -138 -66 -169 0
-5 159 -7 353 -6 l352 3 -3 40 c-8 97 -84 194 -191 243 -75 35 -202 41 -278
14z"/>
</g>
</svg>
