<?xml version="1.0" standalone="no"?>
<!DOCTYPE svg PUBLIC "-//W3C//DTD SVG 20010904//EN"
 "http://www.w3.org/TR/2001/REC-SVG-20010904/DTD/svg10.dtd">
<svg version="1.0" xmlns="http://www.w3.org/2000/svg"
 width="700.000000pt" height="700.000000pt" viewBox="0 0 700.000000 700.000000"
 preserveAspectRatio="xMidYMid meet">
<metadata>
Created by potrace 1.14, written by Peter Selinger 2001-2017
</metadata>
<g transform="translate(0.000000,700.000000) scale(0.100000,-0.100000)"
fill="#000000" stroke="none">
<path d="M6029 6996 c-2 -2 -24 -6 -49 -9 -63 -8 -174 -44 -245 -79 -220 -111
-381 -305 -450 -545 -143 -491 179 -1007 682 -1097 438 -78 862 178 992 599
30 95 35 133 36 250 0 156 -12 223 -65 349 -45 107 -116 210 -199 289 -135
127 -253 189 -446 233 -27 7 -250 15 -256 10z"/>
<path d="M2439 5246 c-2 -2 -40 -7 -84 -11 -240 -22 -526 -94 -740 -187 -337
-145 -605 -326 -850 -574 -104 -105 -172 -181 -204 -228 -8 -12 -18 -23 -21
-26 -14 -10 -139 -198 -187 -280 -183 -314 -300 -675 -341 -1060 -9 -85 -9
-436 1 -523 10 -92 16 -134 27 -187 5 -25 11 -58 14 -75 2 -16 18 -82 35 -145
68 -258 176 -506 318 -729 35 -56 152 -221 163 -231 3 -3 32 -36 65 -75 362
-423 867 -728 1406 -848 63 -14 137 -29 164 -33 28 -3 52 -8 55 -9 30 -18 491
-27 630 -12 225 24 501 89 665 157 11 4 45 18 75 30 126 51 315 150 425 224
22 14 48 32 59 39 10 6 51 36 90 66 589 447 967 1119 1033 1841 10 108 10 433
0 525 -29 254 -79 459 -172 695 -306 777 -971 1365 -1780 1576 -82 21 -254 54
-365 69 -48 7 -475 16 -481 11z"/>
</g>
</svg>
