<svg width="1124" height="1396" viewBox="0 0 1124 1396" fill="none" xmlns="http://www.w3.org/2000/svg">
<path d="M0.5 21C0.5 9.67814 9.67816 0.5 21 0.5H1103C1114.32 0.5 1123.5 9.67816 1123.5 21V1395.5H0.5V21Z" fill="white" stroke="black"/>
<path d="M1.5 71H1122.5" stroke="black"/>
<path d="M0 540H1121" stroke="black"/>
<path d="M26.192 44V43.76L26.792 43.544C27.112 43.416 27.36 43.264 27.536 43.088C27.712 42.896 27.856 42.632 27.968 42.296L32.912 28.112H34.952L39.824 42.392C39.952 42.744 40.096 43.016 40.256 43.208C40.416 43.384 40.664 43.536 41 43.664L41.288 43.76V44H35.192V43.76L35.552 43.64C35.888 43.512 36.088 43.336 36.152 43.112C36.232 42.872 36.224 42.592 36.128 42.272L35 38.816H29.672L28.52 42.2C28.408 42.552 28.368 42.832 28.4 43.04C28.448 43.248 28.64 43.416 28.976 43.544L29.504 43.76V44H26.192ZM29.84 38.336H34.856L32.432 30.872L29.84 38.336ZM47.5726 44.36C46.4846 44.36 45.4926 44.128 44.5966 43.664C43.7166 43.184 43.0126 42.496 42.4846 41.6C41.9726 40.688 41.7166 39.576 41.7166 38.264C41.7166 36.968 41.9966 35.864 42.5566 34.952C43.1326 34.024 43.8926 33.32 44.8366 32.84C45.7966 32.344 46.8446 32.096 47.9806 32.096C48.9086 32.096 49.6926 32.248 50.3326 32.552C50.9726 32.856 51.4606 33.256 51.7966 33.752C52.1326 34.232 52.3006 34.736 52.3006 35.264C52.3006 35.712 52.1646 36.064 51.8926 36.32C51.6206 36.56 51.2686 36.68 50.8366 36.68C50.3726 36.68 49.9966 36.512 49.7086 36.176C49.4206 35.84 49.2526 35.4 49.2046 34.856C49.1886 34.504 49.1966 34.208 49.2286 33.968C49.2606 33.712 49.2606 33.456 49.2286 33.2C49.1646 32.928 49.0606 32.752 48.9166 32.672C48.7886 32.576 48.6046 32.528 48.3646 32.528C47.3886 32.528 46.6286 32.952 46.0846 33.8C45.5566 34.648 45.2926 36 45.2926 37.856C45.2926 39.472 45.5886 40.712 46.1806 41.576C46.7886 42.424 47.7166 42.848 48.9646 42.848C49.7166 42.848 50.3246 42.712 50.7886 42.44C51.2526 42.168 51.7006 41.76 52.1326 41.216L52.3726 41.408C51.9726 42.352 51.3566 43.08 50.5246 43.592C49.6926 44.104 48.7086 44.36 47.5726 44.36ZM53.48 44V43.76L53.816 43.664C54.12 43.584 54.328 43.448 54.44 43.256C54.568 43.064 54.64 42.808 54.656 42.488V34.976C54.656 34.624 54.6 34.368 54.488 34.208C54.376 34.032 54.16 33.912 53.84 33.848L53.48 33.752V33.512L57.584 32.12L57.824 32.36L58.016 33.992C58.544 33.464 59.144 33.016 59.816 32.648C60.504 32.28 61.216 32.096 61.952 32.096C62.72 32.096 63.336 32.256 63.8 32.576C64.264 32.88 64.616 33.36 64.856 34.016C65.48 33.424 66.152 32.96 66.872 32.624C67.608 32.272 68.32 32.096 69.008 32.096C70.144 32.096 70.976 32.368 71.504 32.912C72.048 33.456 72.32 34.312 72.32 35.48V42.512C72.32 43.136 72.608 43.528 73.184 43.688L73.448 43.76V44H67.904V43.76L68.144 43.688C68.448 43.592 68.656 43.448 68.768 43.256C68.896 43.064 68.96 42.808 68.96 42.488V35.144C68.96 34.472 68.84 34.016 68.6 33.776C68.36 33.52 67.976 33.392 67.448 33.392C67.032 33.392 66.624 33.488 66.224 33.68C65.84 33.856 65.432 34.128 65 34.496C65.08 34.752 65.128 35.032 65.144 35.336C65.176 35.64 65.192 35.96 65.192 36.296V42.512C65.208 43.136 65.496 43.528 66.056 43.688L66.272 43.76V44H60.704V43.76L61.04 43.664C61.344 43.568 61.552 43.432 61.664 43.256C61.792 43.064 61.856 42.808 61.856 42.488V35.168C61.856 34.528 61.736 34.072 61.496 33.8C61.272 33.528 60.88 33.392 60.32 33.392C59.952 33.392 59.584 33.488 59.216 33.68C58.848 33.856 58.464 34.12 58.064 34.472V42.512C58.064 43.136 58.344 43.528 58.904 43.688L59.12 43.76V44H53.48ZM80.4103 32.096C81.4503 32.096 82.3383 32.312 83.0743 32.744C83.8103 33.16 84.3703 33.736 84.7543 34.472C85.1543 35.192 85.3543 36.016 85.3543 36.944C85.3543 37.12 85.3463 37.304 85.3303 37.496C85.3143 37.672 85.2823 37.832 85.2343 37.976H78.0823C78.0983 39.704 78.4023 40.952 78.9943 41.72C79.6023 42.472 80.4983 42.848 81.6823 42.848C82.4823 42.848 83.1303 42.72 83.6263 42.464C84.1223 42.208 84.5863 41.832 85.0183 41.336L85.2583 41.552C84.7623 42.432 84.0983 43.12 83.2663 43.616C82.4503 44.112 81.4663 44.36 80.3143 44.36C79.1783 44.36 78.1703 44.12 77.2903 43.64C76.4103 43.144 75.7223 42.44 75.2263 41.528C74.7303 40.616 74.4823 39.528 74.4823 38.264C74.4823 36.952 74.7703 35.84 75.3463 34.928C75.9223 34 76.6583 33.296 77.5543 32.816C78.4663 32.336 79.4183 32.096 80.4103 32.096ZM80.3383 32.576C79.8743 32.576 79.4743 32.72 79.1383 33.008C78.8183 33.28 78.5623 33.776 78.3703 34.496C78.1943 35.2 78.0983 36.2 78.0823 37.496H82.1863C82.3463 35.752 82.2823 34.496 81.9943 33.728C81.7063 32.96 81.1543 32.576 80.3383 32.576ZM91.8249 44V43.76L92.3049 43.568C92.6249 43.456 92.8329 43.304 92.9289 43.112C93.0409 42.92 93.0969 42.664 93.0969 42.344V29.816C93.0969 29.496 93.0489 29.24 92.9529 29.048C92.8569 28.856 92.6409 28.704 92.3049 28.592L91.8249 28.4V28.16H97.9929V28.4L97.5129 28.592C97.1929 28.704 96.9769 28.856 96.8649 29.048C96.7689 29.24 96.7209 29.496 96.7209 29.816V42.344C96.7209 42.664 96.7689 42.92 96.8649 43.112C96.9769 43.288 97.1929 43.44 97.5129 43.568L97.9929 43.76V44H91.8249ZM98.9956 44V43.76L99.3316 43.664C99.8916 43.504 100.172 43.112 100.172 42.488V34.976C100.172 34.624 100.116 34.368 100.004 34.208C99.8916 34.032 99.6756 33.912 99.3556 33.848L98.9956 33.752V33.512L103.1 32.12L103.34 32.36L103.532 33.8C104.092 33.304 104.724 32.896 105.428 32.576C106.132 32.256 106.828 32.096 107.516 32.096C108.572 32.096 109.38 32.384 109.94 32.96C110.516 33.536 110.804 34.416 110.804 35.6V42.512C110.804 43.136 111.108 43.528 111.716 43.688L111.932 43.76V44H106.268V43.76L106.58 43.664C107.14 43.488 107.42 43.096 107.42 42.488V34.832C107.42 33.808 106.908 33.296 105.884 33.296C105.18 33.296 104.412 33.648 103.58 34.352V42.512C103.58 43.136 103.86 43.528 104.42 43.688L104.636 43.76V44H98.9956ZM118.823 44.36C117.735 44.36 116.743 44.128 115.847 43.664C114.967 43.184 114.263 42.496 113.735 41.6C113.223 40.688 112.967 39.576 112.967 38.264C112.967 36.968 113.247 35.864 113.807 34.952C114.383 34.024 115.143 33.32 116.087 32.84C117.047 32.344 118.095 32.096 119.231 32.096C120.159 32.096 120.943 32.248 121.583 32.552C122.223 32.856 122.711 33.256 123.047 33.752C123.383 34.232 123.551 34.736 123.551 35.264C123.551 35.712 123.415 36.064 123.143 36.32C122.871 36.56 122.519 36.68 122.087 36.68C121.623 36.68 121.247 36.512 120.959 36.176C120.671 35.84 120.503 35.4 120.455 34.856C120.439 34.504 120.447 34.208 120.479 33.968C120.511 33.712 120.511 33.456 120.479 33.2C120.415 32.928 120.311 32.752 120.167 32.672C120.039 32.576 119.855 32.528 119.615 32.528C118.639 32.528 117.879 32.952 117.335 33.8C116.807 34.648 116.543 36 116.543 37.856C116.543 39.472 116.839 40.712 117.431 41.576C118.039 42.424 118.967 42.848 120.215 42.848C120.967 42.848 121.575 42.712 122.039 42.44C122.503 42.168 122.951 41.76 123.383 41.216L123.623 41.408C123.223 42.352 122.607 43.08 121.775 43.592C120.943 44.104 119.959 44.36 118.823 44.36ZM127.592 44.36C127.016 44.36 126.528 44.16 126.128 43.76C125.728 43.36 125.528 42.88 125.528 42.32C125.528 41.76 125.728 41.272 126.128 40.856C126.528 40.44 127.016 40.232 127.592 40.232C128.168 40.232 128.656 40.44 129.056 40.856C129.456 41.272 129.656 41.76 129.656 42.32C129.656 42.88 129.456 43.36 129.056 43.76C128.656 44.16 128.168 44.36 127.592 44.36Z" fill="black"/>
<path d="M174 539.5L358.5 302L545 539.5" stroke="black"/>
<path d="M671.5 540L567.913 405L503.5 486.086" stroke="black"/>
<circle cx="739.5" cy="272.5" r="38" stroke="black"/>
</svg>
