<?xml version="1.0" encoding="UTF-8" standalone="no"?>
<!DOCTYPE svg PUBLIC "-//W3C//DTD SVG 1.1//EN" "http://www.w3.org/Graphics/SVG/1.1/DTD/svg11.dtd">
<svg width="100%" height="100%" viewBox="0 0 387 241" version="1.1" xmlns="http://www.w3.org/2000/svg" xmlns:xlink="http://www.w3.org/1999/xlink" xml:space="preserve" xmlns:serif="http://www.serif.com/" style="fill-rule:evenodd;clip-rule:evenodd;stroke-linejoin:round;stroke-miterlimit:2;">
    <g transform="matrix(1,0,0,1,-561.033,-1790.01)">
        <g transform="matrix(0.999735,0,0,1.6106,411.328,1102.99)">
            <g id="Image" transform="matrix(1.00029,0,0,0.622264,-0.0792168,-0.946394)">
                <g transform="matrix(0.896157,0,0,0.522958,15.5537,586.603)">
                    <rect x="149.781" y="192.013" width="431.833" height="457.912" style="fill:rgb(229,229,229);"/>
                </g>
                <g transform="matrix(0.130182,0,0,0.134125,-196.669,731.742)">
                    <g id="Illustration">
                        <rect x="3154" y="38.51" width="1920" height="1041.49" style="fill:rgb(79,84,255);"/>
                    </g>
                </g>
                <g transform="matrix(0.662421,0,0,0.813207,-249.454,-7.4732)">
                    <rect x="792.515" y="992.577" width="21.656" height="17.349" style="fill:white;"/>
                </g>
                <g transform="matrix(4.89063,0,0,0.813207,-3579.53,-7.4732)">
                    <rect x="792.515" y="992.577" width="21.656" height="17.349" style="fill:white;"/>
                </g>
            </g>
        </g>
    </g>
</svg>
