<?xml version="1.0" encoding="UTF-8" standalone="no"?>
<!DOCTYPE svg PUBLIC "-//W3C//DTD SVG 1.1//EN" "http://www.w3.org/Graphics/SVG/1.1/DTD/svg11.dtd">
<svg width="100%" height="100%" viewBox="0 0 388 241" version="1.1" xmlns="http://www.w3.org/2000/svg" xmlns:xlink="http://www.w3.org/1999/xlink" xml:space="preserve" xmlns:serif="http://www.serif.com/" style="fill-rule:evenodd;clip-rule:evenodd;stroke-linejoin:round;stroke-miterlimit:2;">
    <g transform="matrix(1,0,0,1,-149.999,-902.001)">
        <g transform="matrix(0.999828,0,0,1.6106,0.279376,214.983)">
            <g id="Image" transform="matrix(1.00029,0,0,0.622264,-0.0792135,-0.946394)">
                <g transform="matrix(0.896157,0,0,0.522958,15.5537,586.603)">
                    <rect x="149.781" y="192.013" width="431.833" height="457.912" style="fill:rgb(229,229,229);"/>
                </g>
                <g id="Illustration" transform="matrix(0.13017,0,0,0.129343,-192.242,736.907)">
                    <g transform="matrix(1,0,0,1.03698,0,-39.9336)">
                        <rect x="3154" y="38.51" width="1920" height="1041.49" style="fill:rgb(79,84,255);"/>
                    </g>
                    <g transform="matrix(1.30529,0,0,1.31197,-198.329,-945.647)">
                        <rect x="3642.76" y="1347.88" width="281.546" height="196.103" style="fill:white;"/>
                    </g>
                    <g transform="matrix(1.30529,0,0,1.31197,-615.853,-945.647)">
                        <rect x="3642.76" y="1347.88" width="281.546" height="196.103" style="fill:white;"/>
                    </g>
                    <g transform="matrix(1.30529,0,0,1.31197,-1033.38,-945.647)">
                        <rect x="3642.76" y="1347.88" width="281.546" height="196.103" style="fill:white;"/>
                    </g>
                    <g transform="matrix(1.30529,0,0,1.31197,-1450.9,-945.647)">
                        <rect x="3642.76" y="1347.88" width="281.546" height="196.103" style="fill:white;"/>
                    </g>
                    <g transform="matrix(6.05314,0,0,2.12842,-19045.7,-2601.89)">
                        <rect x="3692.25" y="1348.27" width="267.63" height="237.217" style="fill:white;"/>
                    </g>
                    <g transform="matrix(1.30319,0,0,0.285816,-1507.71,-235.358)">
                        <rect x="3692.25" y="1348.27" width="267.63" height="237.217" style="fill:white;"/>
                    </g>
                </g>
            </g>
        </g>
    </g>
</svg>
